<svg width="48" height="48" viewBox="0 0 48 48" fill="none" xmlns="http://www.w3.org/2000/svg">
<path d="M45 18H44V16C44 10.486 39.514 6 34 6H26V2C26 0.896 25.106 0 24 0C22.894 0 22 0.896 22 2V6H14C8.486 6 4 10.486 4 16V18H3C1.346 18 0 19.346 0 21V27C0 28.654 1.346 30 3 30H4V32C4 37.514 8.486 42 14 42H29.394L37.32 47.284C38.04 47.764 38.87 48.006 39.702 48.006C40.398 48.006 41.094 47.838 41.732 47.496C43.13 46.746 44 45.296 44 43.708V29.998H45C46.654 29.998 48 28.652 48 26.998V20.998C48 19.344 46.654 17.998 45 17.998V18ZM40 43.71C40 43.754 40 43.888 39.844 43.97C39.684 44.056 39.572 43.978 39.54 43.956L31.11 38.336C30.782 38.118 30.396 38 30 38H14C10.692 38 8 35.308 8 32V16C8 12.692 10.692 10 14 10H34C37.308 10 40 12.692 40 16V43.71ZM14 19C14 17.344 15.344 16 17 16C18.656 16 20 17.344 20 19C20 20.656 18.656 22 17 22C15.344 22 14 20.656 14 19ZM34 19C34 20.656 32.656 22 31 22C29.344 22 28 20.656 28 19C28 17.344 29.344 16 31 16C32.656 16 34 17.344 34 19ZM33.694 28.39C34.282 29.326 33.998 30.56 33.064 31.146C30.99 32.448 27.732 34 24.002 34C20.272 34 17.014 32.448 14.94 31.146C14.004 30.56 13.722 29.324 14.31 28.39C14.898 27.456 16.132 27.172 17.066 27.758C18.696 28.782 21.224 30 24.004 30C26.784 30 29.31 28.782 30.942 27.758C31.874 27.17 33.112 27.454 33.698 28.39H33.694Z" fill="#41BD99"/>
</svg>
