<svg width="48" height="48" viewBox="0 0 48 48" fill="none" xmlns="http://www.w3.org/2000/svg">
<path d="M6 11C6 9.344 7.344 8 9 8C10.656 8 12 9.344 12 11C12 12.656 10.656 14 9 14C7.344 14 6 12.656 6 11ZM17 14C18.656 14 20 12.656 20 11C20 9.344 18.656 8 17 8C15.344 8 14 9.344 14 11C14 12.656 15.344 14 17 14ZM48 12V36C48 41.514 43.514 46 38 46H10C4.486 46 0 41.514 0 36V12C0 6.486 4.486 2 10 2H38C43.514 2 48 6.486 48 12ZM4 12V16H44V12C44 8.692 41.308 6 38 6H10C6.692 6 4 8.692 4 12ZM44 36V20H4V36C4 39.308 6.692 42 10 42H38C41.308 42 44 39.308 44 36ZM20.414 26.414C21.196 25.632 21.196 24.368 20.414 23.586C19.632 22.804 18.368 22.804 17.586 23.586L13.224 27.948C11.48 29.692 11.48 32.528 13.262 34.308L17.624 38.45C18.422 39.212 19.69 39.18 20.45 38.378C21.212 37.578 21.178 36.312 20.378 35.552L16.054 31.444C15.87 31.26 15.87 30.96 16.054 30.776L20.416 26.414H20.414ZM30.414 23.586C29.632 22.804 28.368 22.804 27.586 23.586C26.804 24.368 26.804 25.632 27.586 26.414L31.948 30.776C32.132 30.96 32.132 31.26 31.97 31.422L27.652 35.608C26.86 36.376 26.84 37.644 27.61 38.436C28.38 39.23 29.646 39.248 30.438 38.478L34.778 34.27C36.522 32.526 36.522 29.69 34.778 27.946L30.416 23.584L30.414 23.586Z" fill="#41BD99"/>
</svg>
