<svg width="48" height="48" viewBox="0 0 48 48" fill="none" xmlns="http://www.w3.org/2000/svg">
<path d="M41.5 17.4201L45 13.9202V38H25.75V41.5H33.625V45H14.375V41.5H22.25V38H3V11.7502C3 8.85569 5.3555 6.5002 8.25 6.5002H31.0682L27.9357 10.0002H8.25C7.28575 10.0002 6.5 10.7842 6.5 11.7502V34.5001H41.5V17.4201ZM24 20.5001C17 20.5001 15.25 31.0001 15.25 31.0001H24C26.8997 31.0001 29.25 28.6498 29.25 25.7501C29.25 22.8504 26.8997 20.5001 24 20.5001ZM28.5833 18.3301L38.6248 7.04445C39.2337 6.3637 40.2803 6.30595 40.9593 6.91495C40.982 6.93595 41.003 6.9552 41.0257 6.97795C41.6715 7.62195 41.6715 8.66669 41.0275 9.31244C41.0275 9.31244 41.0275 9.31244 41.0257 9.31419L30.4523 19.8894C31.266 20.7836 31.882 21.8459 32.2705 23.0184L43.4932 11.7957C45.5023 9.78318 45.5023 6.52295 43.4932 4.51046C41.4825 2.49797 38.2222 2.49622 36.2097 4.50696C36.1415 4.57521 36.075 4.64521 36.0103 4.71696L24.9887 17.0999C26.296 17.2504 27.514 17.6686 28.5833 18.3301Z" fill="#41BD99"/>
</svg>
