<svg width="222" height="43" viewBox="0 0 222 43" fill="none" xmlns="http://www.w3.org/2000/svg">
<g clip-path="url(#clip0_43_268)">
<path d="M187.28 29.3129C187.275 28.9749 187.547 28.6969 187.887 28.6947C187.892 28.6947 187.896 28.6947 187.898 28.6947H204.813C204.995 28.6969 205.166 28.776 205.286 28.9129C205.513 29.1653 205.495 29.5525 205.249 29.7856C205.134 29.9033 204.978 29.9696 204.813 29.9674H187.862C187.524 29.9396 187.267 29.6509 187.277 29.3129M189.096 27.022C189.092 26.6841 189.364 26.406 189.704 26.4039C189.708 26.4039 189.711 26.4039 189.715 26.4039H202.155C202.328 26.4081 202.495 26.4723 202.628 26.5857C202.855 26.8381 202.837 27.2252 202.591 27.4584C202.476 27.576 202.32 27.6423 202.155 27.6402H189.713C189.375 27.6423 189.099 27.3707 189.094 27.0327C189.094 27.0285 189.094 27.0263 189.094 27.022M216.193 27.6402C214.469 27.5589 212.774 27.1375 211.209 26.406C211.064 26.3333 210.955 26.2969 210.809 26.2242C210.336 25.9696 209.9 25.7151 209.463 25.4242C209.026 25.1333 208.626 24.806 208.228 24.4788C207.441 23.7964 206.734 23.0285 206.118 22.1879C204.883 20.4917 204.085 18.5195 203.79 16.4425C203.717 15.9334 203.681 15.4244 203.644 14.8789V12.4768C203.666 12.1367 203.961 11.8779 204.301 11.8993C204.612 11.9185 204.858 12.1667 204.879 12.4768V14.8768C204.879 15.3495 204.952 15.8222 204.988 16.2949C205.281 18.1559 206.005 19.9227 207.098 21.4585C207.653 22.2264 208.301 22.9216 209.026 23.5312C209.39 23.8221 209.754 24.1151 210.154 24.4039C210.552 24.667 210.965 24.9108 211.389 25.1312C212.896 25.8905 214.541 26.3354 216.228 26.4402C216.572 26.4402 216.848 26.7226 216.846 27.0648C216.846 27.0755 216.846 27.0841 216.846 27.0948C216.812 27.4242 216.521 27.6637 216.191 27.6402M216.191 29.9311C214.312 29.8541 212.463 29.4348 210.736 28.6969C210.411 28.5514 210.118 28.406 209.79 28.2605C209.427 28.0787 209.099 27.8969 208.735 27.6766L208.19 27.3514C207.764 27.0691 207.351 26.7654 206.955 26.4424C206.891 26.3718 206.818 26.3097 206.737 26.2605C205.81 25.4627 204.98 24.56 204.263 23.5697C202.812 21.5826 201.862 19.2746 201.498 16.8425C201.414 16.2393 201.365 15.6318 201.352 15.0244V11.3153C201.337 10.9752 201.601 10.6865 201.941 10.6694C202.281 10.6544 202.57 10.9175 202.587 11.2576C202.587 11.2768 202.587 11.2961 202.587 11.3153V14.9538C202.6 15.5142 202.649 16.0725 202.733 16.6265C203.242 19.9933 204.945 23.0649 207.535 25.2809C207.971 25.6445 208.408 25.9718 208.881 26.2991L209.063 26.4081C209.474 26.6712 209.9 26.9151 210.336 27.1354C210.7 27.3172 211.1 27.499 211.5 27.6808C213.007 28.2862 214.608 28.6306 216.23 28.699C216.572 28.6883 216.857 28.9578 216.865 29.3001C216.876 29.6423 216.606 29.9268 216.264 29.9354C216.24 29.9354 216.217 29.9354 216.193 29.9354M185.784 31.6038C185.779 31.2658 186.051 30.9877 186.391 30.9856C186.396 30.9856 186.4 30.9856 186.402 30.9856H210.227C209.718 30.7674 209.208 30.5493 208.735 30.2947C208.517 30.1856 208.299 30.0765 208.117 29.9696C207.717 29.7514 207.317 29.4969 206.916 29.2423C206.662 29.0605 206.407 28.8787 206.189 28.6969C205.863 28.4423 205.57 28.2242 205.243 27.9333C205.134 27.8242 205.025 27.7514 204.918 27.6423C204.466 27.2466 204.04 26.821 203.644 26.3696C203.201 25.8862 202.79 25.3771 202.41 24.8424C200.766 22.543 199.681 19.8906 199.244 17.0971C199.129 16.3997 199.067 15.6939 199.063 14.988V10.2993C199.048 9.9592 199.311 9.67044 199.651 9.65333C199.991 9.63835 200.28 9.90145 200.297 10.2416C200.297 10.2608 200.297 10.2801 200.297 10.2993V14.9901C200.321 15.6468 200.383 16.3035 200.479 16.9537C200.882 19.5398 201.892 21.9932 203.424 24.113C204.002 24.9515 204.671 25.7194 205.425 26.4039C205.643 26.622 205.861 26.8039 206.08 26.9878C206.334 27.206 206.625 27.4242 206.916 27.6423C207.15 27.8242 207.394 27.9931 207.644 28.1514C207.935 28.3332 208.19 28.5151 208.481 28.6605C208.772 28.8423 209.065 28.9856 209.354 29.1332C209.932 29.4241 210.527 29.6787 211.136 29.8969C212.793 30.5065 214.537 30.8509 216.3 30.915H216.373C216.634 30.9578 216.84 31.1631 216.882 31.4241V31.715C216.882 31.7514 216.846 31.8241 216.846 31.8605V31.8968C216.846 31.9332 216.81 31.9696 216.773 32.0059L216.737 32.0423C216.737 32.0786 216.701 32.0786 216.664 32.115C216.628 32.1514 216.628 32.1514 216.591 32.1514C216.555 32.1877 216.519 32.1877 216.482 32.2241C216.454 32.2262 216.429 32.2391 216.41 32.2605C216.358 32.2605 216.309 32.2712 216.264 32.2968H186.402C186.045 32.2669 185.775 31.9631 185.784 31.6059M189.206 0.847049C184.786 0.847049 181.204 4.42774 181.204 8.84478V33.0198C181.204 37.4368 184.786 41.0175 189.206 41.0175H213.394C217.813 41.0175 221.398 37.4368 221.398 33.0198V8.84264C221.398 4.4256 217.815 0.84491 213.396 0.84491L189.206 0.849188V0.847049Z" fill="white"/>
<path d="M123.471 30.314C122.212 30.3097 121.179 31.3022 121.136 32.5578V32.6947C121.17 33.9481 122.217 34.9342 123.468 34.9C123.513 34.9 123.56 34.8957 123.605 34.8914C124.778 34.7717 125.671 33.7813 125.666 32.6027C125.705 31.3771 124.742 30.3546 123.518 30.3161C123.501 30.3161 123.486 30.3161 123.468 30.3161" fill="#0E8D7D"/>
<path d="M118.345 30.314C117.087 30.3097 116.053 31.3022 116.01 32.5578V32.6947C116.045 33.9481 117.091 34.9342 118.343 34.9C118.388 34.9 118.435 34.8957 118.48 34.8914C119.653 34.7717 120.543 33.7813 120.541 32.6027C120.579 31.3771 119.616 30.3546 118.392 30.3161C118.375 30.3161 118.36 30.3161 118.343 30.3161" fill="#0E8D7D"/>
<path d="M97.4693 23.1761V25.6017C97.4244 27.8349 98.244 29.9995 99.7592 31.6444C102.038 34.1406 105.584 35.039 108.777 33.9332C111.193 33.1203 113.124 31.2765 114.042 28.9001C114.729 28.945 115.46 28.945 116.147 28.945H122.42C122.76 28.9471 123.1 28.9022 123.428 28.8081C123.858 28.7118 124.265 28.5236 124.618 28.2584C124.994 27.9803 125.32 27.6381 125.581 27.2488V27.6616C125.596 28.3632 126.161 28.9279 126.862 28.9429H152.774C153.324 28.9429 153.872 28.9878 154.422 28.9429C154.777 28.945 155.132 28.9001 155.475 28.806C155.905 28.7097 156.311 28.5215 156.664 28.2562C157.475 27.7001 157.998 26.8103 158.083 25.8306C158.182 24.7504 158.214 23.6659 158.175 22.5815V1.48447C158.175 0.934746 157.991 0.844908 157.488 0.844908C154.768 0.785016 152.515 2.93899 152.453 5.65767C152.453 5.71542 152.453 5.77531 152.453 5.83306V23.313C152.179 23.2745 151.905 23.2595 151.629 23.2681H126.036V16.6778C126.036 16.1281 125.852 16.0383 125.35 16.0383C122.63 15.9784 120.376 18.1323 120.314 20.851C120.314 20.9088 120.314 20.9687 120.314 21.0264V23.2681H114.363V1.66842C114.363 1.16576 114.179 1.02886 113.723 1.02886C111.003 0.96897 108.749 3.12509 108.689 5.84376C108.689 5.89937 108.689 5.95713 108.689 6.01274V19.559C108.689 19.651 108.645 19.6959 108.689 19.7879V26.0573C108.597 27.3258 107.688 28.3846 106.447 28.6648C105.013 28.9899 103.573 28.1493 103.151 26.744C102.976 25.9483 102.914 25.1312 102.967 24.3183C102.986 21.5547 100.763 19.3002 97.9979 19.281C97.9145 19.281 97.831 19.281 97.7475 19.2853C97.3816 19.2853 97.2446 19.3772 97.2446 19.7409C97.4565 20.8724 97.5335 22.0232 97.4736 23.174" fill="#0E8D7D"/>
<path d="M165.177 28.9407H170.947C173.84 28.883 176.158 26.5258 176.166 23.6339V20.6136C176.169 16.0917 172.505 12.4255 167.981 12.4233C167.977 12.4233 167.974 12.4233 167.97 12.4233H162.888C162.333 12.4276 161.886 12.8768 161.882 13.4308C161.89 15.9548 163.934 17.9997 166.459 18.0061H166.915C168.935 18.0126 170.572 19.6468 170.577 21.666V22.1686C170.568 22.7718 170.082 23.2574 169.479 23.2659H160.829C160.279 23.2659 160.189 23.4499 160.189 23.9526C160.178 26.6969 162.398 28.93 165.143 28.9407C165.154 28.9407 165.167 28.9407 165.177 28.9407Z" fill="#0E8D7D"/>
<path d="M18.6353 40.3352C16.7649 41.1138 14.7554 41.5031 12.7288 41.4795C10.9633 41.4924 9.20849 41.1822 7.55639 40.564C6.05196 39.9758 4.68021 39.0881 3.52674 37.9566C2.41179 36.8251 1.52582 35.4882 0.918051 34.0208C0.282466 32.4358 -0.0299772 30.7396 0.00212313 29.0327V28.9407C-0.010717 27.2744 0.316706 25.6252 0.965132 24.0894C1.5836 22.6028 2.48455 21.251 3.6209 20.1088C4.77009 18.9494 6.1397 18.0296 7.65055 17.4093C9.26199 16.742 10.989 16.3997 12.7331 16.4019C13.7303 16.4019 14.7233 16.4789 15.7077 16.6307C16.5488 16.7676 17.3748 16.9837 18.1773 17.2703C18.9285 17.5462 19.6496 17.8992 20.328 18.3227L20.3494 18.3355C21.321 18.9195 21.6334 20.1815 21.0492 21.1526C20.9957 21.2403 20.9358 21.3259 20.8695 21.405L19.3286 23.2638C19.1018 23.5376 18.6973 23.5804 18.4191 23.36C18.1238 23.129 17.8306 22.9237 17.5353 22.7183C17.0816 22.4232 16.6087 22.1622 16.1165 21.9397C15.5986 21.7237 15.0614 21.5547 14.5136 21.4371C13.8823 21.3023 13.236 21.2403 12.5919 21.2531C11.6567 21.2382 10.7322 21.4414 9.89115 21.8478C9.05869 22.2499 8.31182 22.8082 7.69335 23.4948C7.04493 24.1771 6.5463 24.9878 6.23172 25.8755C5.8615 26.8081 5.67531 27.8006 5.68174 28.8038V28.9407C5.66889 29.9888 5.85508 31.0284 6.23172 32.0059C6.58054 32.9021 7.08987 33.7257 7.74043 34.4337C8.39314 35.1331 9.19137 35.6807 10.0795 36.0315C11.0254 36.4101 12.0376 36.5962 13.0541 36.5812C14.5243 36.609 15.9795 36.2753 17.2892 35.6058C17.7878 35.3342 18.096 34.8101 18.0896 34.2412V32.793C18.0896 32.0957 17.6765 31.6829 17.1651 31.6829H13.2232C12.8765 31.6829 12.594 31.4006 12.594 31.054C12.594 28.8744 14.3617 27.1076 16.5423 27.1076H21.9074C22.5772 27.1076 23.1208 27.6509 23.1208 28.3204V33.6251C23.1208 36.5427 21.3745 39.1758 18.6866 40.3116L18.6374 40.333L18.6353 40.3352Z" fill="white"/>
<path d="M36.6264 40.1726V38.3651C36.3161 38.7673 35.978 39.1501 35.6185 39.5095C35.2632 39.8795 34.863 40.2004 34.4286 40.4699C33.9749 40.7565 33.4806 40.9726 32.9627 41.1095C32.3827 41.2806 31.7814 41.3576 31.1779 41.3383C29.162 41.3383 27.6062 40.7437 26.5084 39.5074C25.3442 38.0978 24.7557 36.301 24.8606 34.4743V23.8114C24.8606 23.0777 25.4534 22.4852 26.1874 22.483C28.3617 22.483 30.1229 24.2434 30.125 26.4167V32.7759C30.0458 33.777 30.339 34.7716 30.9489 35.5695C31.5396 36.2283 32.3999 36.5812 33.2837 36.5299C34.1804 36.5812 35.0556 36.2283 35.6655 35.5695C36.3054 34.7844 36.6157 33.7834 36.5344 32.7759V23.8114C36.5344 23.0777 37.1272 22.483 37.8591 22.483C40.0333 22.483 41.7967 24.2413 41.7988 26.4145V40.1683C41.7988 40.6346 41.42 41.0132 40.9535 41.0132H37.4717C37.0052 41.0132 36.6264 40.6346 36.6264 40.1683" fill="white"/>
<path d="M47.2473 16.0661C45.7943 16.0596 44.6001 17.2062 44.5466 18.6585V18.8168C44.6001 20.3505 45.7643 21.358 47.4057 21.358C48.7625 21.2189 49.794 20.0746 49.7875 18.712C49.8325 17.296 48.7197 16.111 47.3008 16.0661C47.2816 16.0661 47.2645 16.0661 47.2452 16.0661" fill="white"/>
<path d="M44.5231 40.1726V23.8136C44.5231 23.0799 45.1159 22.4874 45.8499 22.4852C48.0242 22.4852 49.7876 24.2478 49.7876 26.421V40.1726C49.7876 40.639 49.4088 41.0176 48.9423 41.0176H45.3684C44.9019 41.0176 44.5231 40.639 44.5231 40.1726Z" fill="white"/>
<path d="M66.7493 40.1726V38.3652C66.1223 39.2293 65.3284 39.9609 64.4146 40.5149C63.366 41.0967 62.1783 41.3812 60.9798 41.3384C58.7756 41.3298 56.6656 40.4422 55.1205 38.87C54.303 37.9951 53.6653 36.9706 53.2437 35.8497C52.7643 34.5299 52.531 33.1353 52.5567 31.7321V31.6402C52.531 30.237 52.7643 28.8402 53.2437 27.5226C53.6653 26.4017 54.303 25.3772 55.1205 24.5023C55.8695 23.6938 56.794 23.0692 57.8212 22.6713C58.8355 22.2478 59.9248 22.0318 61.0248 22.0318C62.2382 21.9826 63.4409 22.267 64.5045 22.8553C65.3733 23.3579 66.148 24.0082 66.7943 24.7761V17.1356C66.7943 16.4019 67.3871 15.8094 68.1211 15.8073C70.2953 15.8073 72.0587 17.5698 72.0587 19.743V40.1748C72.0587 40.6411 71.6799 41.0197 71.2134 41.0197H67.5968C67.1303 41.0197 66.7515 40.6411 66.7515 40.1748M66.8456 31.73C66.8456 31.0134 66.7237 30.299 66.4797 29.6252C66.27 29.0177 65.9447 28.4595 65.5188 27.9782C64.7227 27.067 63.5693 26.5493 62.3602 26.56C61.7609 26.56 61.1703 26.6862 60.6203 26.9258C60.0746 27.1654 59.5888 27.5247 59.2015 27.9782C58.7863 28.4595 58.4482 28.9985 58.1935 29.5803C57.9239 30.2477 57.7998 30.9664 57.8276 31.6851V31.7771C57.8276 32.4936 57.9496 33.208 58.1935 33.8818C58.4011 34.5 58.7457 35.0626 59.2015 35.5289C59.6102 35.9588 60.0917 36.3139 60.6203 36.5813C61.1703 36.8165 61.7609 36.9406 62.3602 36.947C62.9594 36.947 63.55 36.8208 64.1 36.5813C64.6457 36.3417 65.1315 35.9823 65.5188 35.5289C65.9447 35.0476 66.2721 34.4893 66.4797 33.8818C66.7237 33.2059 66.8478 32.4936 66.8456 31.7771V31.7321V31.73Z" fill="white"/>
<path d="M92.7078 32.9663C92.7078 33.1503 92.6629 33.3791 92.6629 33.6059H79.7521C79.9362 34.6604 80.4861 35.6187 81.3079 36.3053C82.1703 36.932 83.2168 37.255 84.2825 37.2208C85.085 37.2422 85.8811 37.0882 86.6173 36.7652L86.6387 36.7545C88.111 36.0443 89.8637 36.2775 91.0985 37.3448C91.4816 37.6764 91.5222 38.2539 91.1905 38.6368C91.182 38.6475 91.1713 38.6582 91.1627 38.6667C90.4137 39.424 89.5427 40.0485 88.5861 40.5148C87.2101 41.148 85.7057 41.4603 84.1905 41.4303C82.8765 41.441 81.5733 41.2079 80.3449 40.7437C79.1936 40.3138 78.1471 39.6421 77.2783 38.7758C76.4073 37.916 75.7225 36.8892 75.2624 35.7556C74.753 34.5235 74.5027 33.1995 74.5305 31.8669V31.7749C74.5241 30.4915 74.7573 29.2188 75.2174 28.0231C75.6497 26.8958 76.2853 25.8563 77.0942 24.9579C77.9138 24.0916 78.8918 23.3921 79.979 22.898C81.1431 22.3718 82.41 22.1066 83.6876 22.1194C85.0765 22.0852 86.4547 22.3675 87.7173 22.9429C88.8215 23.4648 89.7931 24.2306 90.5549 25.1846C91.2997 26.1386 91.8604 27.2252 92.2028 28.3867C92.573 29.6188 92.7592 30.8979 92.7527 32.1856V32.2775C92.7185 32.5043 92.7014 32.7353 92.7078 32.9642M86.3477 27.4776C85.665 26.7439 84.6956 26.3418 83.6919 26.3803C82.6861 26.3482 81.7102 26.729 80.9912 27.4327C80.2636 28.2348 79.7992 29.2402 79.6622 30.3161H87.5825C87.4883 29.2615 87.056 28.2669 86.3477 27.4798" fill="white"/>
<path d="M100.44 36.162C100.898 36.162 101.272 35.792 101.272 35.3342C101.272 34.8765 100.902 34.5021 100.444 34.5021C99.986 34.5021 99.6115 34.8722 99.6115 35.3299C99.6115 35.5502 99.6992 35.7641 99.8555 35.9203C100.01 36.0786 100.221 36.1663 100.44 36.1641" fill="white"/>
<path d="M98.7062 36.162C99.1642 36.162 99.5366 35.792 99.5387 35.3342C99.5387 34.8765 99.1685 34.5043 98.7105 34.5021C98.2526 34.5 97.8802 34.8722 97.8781 35.3299C97.8781 35.5503 97.9658 35.762 98.122 35.9182C98.2761 36.0765 98.4858 36.1641 98.7062 36.162Z" fill="white"/>
<path d="M101.754 38.6176C101.754 38.2582 101.659 37.9053 101.478 37.5973C101.296 37.2893 101.037 37.0347 100.726 36.8572C100.403 36.6754 100.037 36.5834 99.6671 36.5877L97.5271 36.5984V38.7887C97.5271 39.1566 97.6298 39.516 97.8224 39.8283C98.0107 40.147 98.2804 40.4101 98.6014 40.5897C98.9267 40.7716 99.2926 40.8678 99.665 40.8657C100.031 40.8657 100.39 40.7694 100.705 40.5855C101.022 40.4037 101.283 40.1427 101.467 39.8283C101.653 39.5138 101.751 39.1545 101.754 38.7887L101.749 38.6197L101.754 38.6176ZM99.038 38.1042H99.6671C99.8233 38.1042 99.9731 38.1663 100.08 38.2796C100.196 38.3823 100.262 38.532 100.26 38.686V38.7652C100.264 38.9235 100.202 39.0775 100.091 39.1887C99.9774 39.2978 99.8255 39.3577 99.6671 39.3534C99.5023 39.3555 99.3418 39.2935 99.222 39.1801C99.1043 39.0753 99.038 38.9256 99.0358 38.7673V38.1064L99.038 38.1042Z" fill="white"/>
<path d="M131.089 38.9234C131.095 39.0411 131.053 39.1544 130.969 39.2357C130.751 39.3876 130.46 39.3919 130.237 39.2464C130.158 39.1716 130.117 39.0646 130.124 38.9555V37.3962H128.607V38.9277C128.617 39.0454 128.574 39.1587 128.489 39.24C128.38 39.3277 128.241 39.3726 128.099 39.3619C127.969 39.3683 127.84 39.3277 127.74 39.2464C127.654 39.1758 127.609 39.0689 127.614 38.9577V37.3983H126.111V39.2935L126.047 39.3577H125.882V39.3512H104.869C104.649 39.3448 104.469 39.1673 104.463 38.9448V36.5941H102.956V40.4379C102.98 40.6646 102.89 40.887 102.717 41.0346C102.458 41.1993 102.165 41.3084 101.861 41.3512L101.704 41.3812L102.259 42.81L102.366 42.7908C102.914 42.7095 103.423 42.4678 103.832 42.0934C104.174 41.7491 104.388 41.2977 104.439 40.8165C104.581 40.8507 104.724 40.8678 104.869 40.8678H126.043C126.381 40.8699 126.711 40.7608 126.978 40.5555C127.288 40.7608 127.652 40.8699 128.022 40.8678C128.286 40.8721 128.549 40.8357 128.801 40.7608C129.005 40.6945 129.193 40.5919 129.36 40.4592C129.505 40.579 129.668 40.6731 129.844 40.7437C130.083 40.8314 130.336 40.8721 130.59 40.8678C130.939 40.8678 131.282 40.7822 131.588 40.6154C131.887 40.4507 132.14 40.2111 132.317 39.9181C132.499 39.6186 132.593 39.2721 132.589 38.9213V36.5898H131.08V38.9192L131.089 38.9234Z" fill="white"/>
<path d="M136.319 39.2785C136.319 39.2999 136.311 39.3191 136.294 39.3341C136.281 39.3491 136.261 39.3577 136.242 39.3555H135.739V35.9117H134.224V39.3555H133.054V40.8699H136.242C136.523 40.8699 136.796 40.7972 137.038 40.656C137.28 40.517 137.479 40.3159 137.62 40.0742C137.762 39.8325 137.837 39.5587 137.837 39.2785V34.9898H136.319V39.2785Z" fill="white"/>
<path d="M135.881 34.9021H135.014C134.943 34.9107 134.877 34.8786 134.836 34.8209C134.804 34.7695 134.785 34.7096 134.785 34.6497C134.785 34.5984 134.811 34.5492 134.853 34.5193C134.896 34.4786 134.954 34.4594 135.014 34.4615C135.084 34.4572 135.155 34.4743 135.215 34.5128C135.277 34.5749 135.328 34.6433 135.371 34.7203L135.891 34.3182C135.818 34.1492 135.694 34.0059 135.536 33.9096C135.38 33.8155 135.198 33.7685 135.016 33.7727C134.791 33.7663 134.571 33.8497 134.406 34.0038C134.239 34.1513 134.132 34.3524 134.102 34.5727C134.089 34.684 134.096 34.7973 134.126 34.9064H133.839V35.5823H135.885V34.9043L135.881 34.9021Z" fill="white"/>
<path d="M140.131 34.9919H138.613V40.8678H140.131V34.9919Z" fill="white"/>
<path d="M145.943 41.1416C145.722 41.1394 145.511 41.2271 145.359 41.3854C145.2 41.5373 145.113 41.7469 145.115 41.9651C145.115 42.4228 145.487 42.795 145.945 42.795C146.403 42.795 146.775 42.4228 146.775 41.9651C146.771 41.5095 146.401 41.1437 145.945 41.1416" fill="white"/>
<path d="M175.837 37.7341C175.629 37.3833 175.33 37.0946 174.968 36.9042C174.382 36.5834 173.69 36.5149 173.051 36.7138L171.409 37.2165V34.9941H169.9V39.3555H149.446C149.348 39.3555 149.254 39.3213 149.181 39.255C149.11 39.1972 149.059 39.1202 149.033 39.0325V36.5983H147.507V39.0218C147.507 39.1117 147.475 39.1972 147.413 39.2593C147.351 39.3213 147.268 39.3555 147.18 39.3555H144.331C144.212 39.3576 144.096 39.3106 144.013 39.225C143.925 39.1437 143.876 39.0282 143.882 38.9063V37.3962H142.348V38.9085C142.346 39.255 142.438 39.5951 142.617 39.8924C142.97 40.4999 143.623 40.8721 144.327 40.8678H147.317C147.687 40.8699 148.049 40.7523 148.344 40.5298C148.667 40.7523 149.048 40.8699 149.44 40.8678H175.049C175.244 40.8699 175.437 40.8186 175.606 40.7202C175.952 40.5213 176.164 40.1512 176.162 39.7512V38.9577C176.169 38.5277 176.055 38.1063 175.837 37.7363M174.529 38.4956C174.615 38.6347 174.66 38.7929 174.66 38.9555V39.2806C174.66 39.3127 174.649 39.3277 174.591 39.3555H171.416V38.7844L173.496 38.1534C173.594 38.1277 173.695 38.1127 173.797 38.1106C173.949 38.1106 174.099 38.1448 174.236 38.2111C174.36 38.2753 174.463 38.3758 174.531 38.4978" fill="white"/>
<path d="M0.00213623 9.20841H2.08224V6.41487H5.34362V4.51758H2.08224V2.72295H5.58331V0.847046H0.00213623V9.20841Z" fill="#0E8D7D"/>
<path d="M10.6616 3.43526C10.2186 3.20425 9.72638 3.08875 9.22775 3.09516C8.74625 3.09516 8.26902 3.18286 7.81748 3.35398C7.35523 3.52938 6.93365 3.79462 6.57413 4.13258L7.62488 5.26839C7.81962 5.0823 8.04646 4.93471 8.2947 4.83203C8.53652 4.72722 8.79547 4.67161 9.05869 4.66947C9.30693 4.66305 9.55303 4.72294 9.76918 4.84273C9.9682 4.94968 10.0859 5.16144 10.0731 5.38604L10.0838 5.58924C9.67287 5.51865 9.25771 5.48229 8.84041 5.48229C8.17272 5.45021 7.50932 5.61063 6.92937 5.94218C6.45429 6.24592 6.18036 6.78281 6.2146 7.34536C6.1932 7.88867 6.40292 8.417 6.79455 8.79775C7.25251 9.19346 7.8453 9.39239 8.44878 9.35175C8.85967 9.36244 9.26627 9.27688 9.63863 9.10149C9.94894 8.95389 10.2015 8.71219 10.362 8.40845V9.20844H12.0462V5.69619C12.0504 5.22775 11.922 4.76786 11.6759 4.37001C11.4277 3.97215 11.0767 3.64703 10.6616 3.43313M10.1009 6.86837C10.118 7.15285 10.011 7.43092 9.8077 7.63199C9.57657 7.82664 9.27911 7.92503 8.97737 7.90578C8.75481 7.92931 8.53224 7.86514 8.35676 7.72611C8.2305 7.58707 8.1663 7.40098 8.177 7.21275C8.177 6.78281 8.51512 6.56891 9.19137 6.56891C9.49739 6.57532 9.80128 6.60741 10.1009 6.66516V6.86623V6.86837Z" fill="#0E8D7D"/>
<path d="M22.0914 3.39245C21.7768 3.19138 21.4087 3.08657 21.0342 3.09299C20.6126 3.08871 20.1975 3.19138 19.8273 3.39245C19.4891 3.56357 19.2131 3.83309 19.0376 4.16891C18.9028 3.84164 18.6631 3.56999 18.3571 3.39245C18.0254 3.19138 17.6444 3.08871 17.2571 3.09299C16.874 3.08871 16.4952 3.18069 16.1571 3.3625C15.8468 3.51865 15.59 3.76036 15.4167 4.06196V3.2363H13.4586V9.2084H15.4659V5.94856C15.4573 5.67477 15.5408 5.40739 15.7056 5.18921C15.8618 4.98815 16.1079 4.87264 16.3626 4.88548C16.6087 4.88548 16.8398 4.99456 16.996 5.18494C17.1758 5.39884 17.2678 5.67049 17.255 5.94856V9.2084H19.2623V5.94856C19.2559 5.67691 19.3458 5.41167 19.5148 5.19991C19.6796 4.99456 19.9321 4.87906 20.1953 4.88975C20.4372 4.88761 20.664 4.9967 20.8117 5.18921C20.9807 5.40739 21.0685 5.67905 21.0578 5.95284V9.21268H23.0651V5.38814C23.0715 4.98173 22.9816 4.57746 22.8062 4.21169C22.6478 3.878 22.3996 3.59566 22.0914 3.39459" fill="#0E8D7D"/>
<path d="M26.4228 3.23633H24.4155V9.20843H26.4228V3.23633Z" fill="#0E8D7D"/>
<path d="M25.4192 -1.5001e-05C25.1024 -0.00429301 24.7964 0.119769 24.5739 0.346504C24.3449 0.564682 24.2165 0.866281 24.2207 1.18285C24.2165 1.49943 24.3427 1.80103 24.5739 2.0192C24.7964 2.24594 25.1024 2.37 25.4192 2.36572C25.7295 2.37 26.0291 2.2438 26.2431 2.0192C26.4699 1.80103 26.594 1.49729 26.5897 1.18285C26.5919 0.870559 26.4678 0.571099 26.2431 0.352921C26.0291 0.124047 25.7316 -0.002154 25.4192 -1.5001e-05Z" fill="#0E8D7D"/>
<path d="M29.7805 0.847046H27.7732V9.20841H29.7805V0.847046Z" fill="#0E8D7D"/>
<path d="M33.7117 6.79563L32.494 3.09302H30.3433L32.6973 9.10148L32.6503 9.24479C32.6053 9.43302 32.4833 9.59559 32.3164 9.69398C32.0639 9.78596 31.7964 9.82446 31.5289 9.80735H30.4888V11.5998H31.8863C32.4577 11.6298 33.0269 11.495 33.5234 11.2105C33.9664 10.8961 34.2938 10.4448 34.4586 9.92713L36.9774 3.09516H34.8267L33.716 6.79777L33.7117 6.79563Z" fill="#0E8D7D"/>
<path d="M44.8484 6.82984L42.8261 0.847046H40.1275V9.20841H42.1819V3.72614L44.0694 9.20841H45.6102L47.594 3.72614V9.20841H49.6485V0.847046H47.0205L44.8462 6.82984H44.8484Z" fill="#0E8D7D"/>
<path d="M54.0954 3.11655C53.509 3.10799 52.9291 3.23847 52.4048 3.49943C51.9211 3.74113 51.5167 4.11546 51.2385 4.57962C50.9538 5.06732 50.8105 5.62346 50.8212 6.18601C50.8083 6.76141 50.9538 7.32824 51.2385 7.82877C51.5167 8.30149 51.9254 8.68437 52.4155 8.93249C52.9612 9.20415 53.5668 9.34104 54.1767 9.32607C54.7609 9.33249 55.3409 9.24479 55.8973 9.06725C56.3488 8.94319 56.7576 8.69934 57.0807 8.36138L55.9936 7.16782C55.7839 7.35177 55.5335 7.48439 55.266 7.55712C54.9407 7.65765 54.6026 7.70898 54.2623 7.70685C53.9156 7.71326 53.5754 7.61701 53.2822 7.43305C53.0232 7.2983 52.8585 7.03306 52.852 6.74002H57.2969C57.3204 6.54537 57.3332 6.35072 57.3332 6.15607C57.3825 5.31972 57.07 4.50476 56.473 3.91653C55.8117 3.35611 54.96 3.07163 54.0954 3.12296M52.8306 5.5272C52.8392 5.37105 52.8991 5.22346 53.004 5.1101C53.1324 4.95609 53.2907 4.83203 53.4684 4.74647C53.9627 4.50904 54.5491 4.55609 54.9985 4.87267C55.2039 5.02881 55.3259 5.27052 55.3259 5.52934H52.8285L52.8306 5.5272Z" fill="#0E8D7D"/>
<path d="M62.6662 4.07266C62.6062 3.91652 62.5014 3.78176 62.3687 3.68336C62.1675 3.51224 61.9386 3.37749 61.6925 3.28337C61.4164 3.17214 61.1232 3.11439 60.8258 3.11653C60.0553 3.06947 59.3063 3.37535 58.7885 3.94646C58.2898 4.57319 58.0373 5.36248 58.078 6.16247C58.0287 6.99454 58.2684 7.81806 58.7585 8.49184C59.27 9.07579 60.0275 9.38381 60.8022 9.32819C61.2259 9.33247 61.6432 9.2405 62.0263 9.06082C62.3666 8.91751 62.6469 8.66296 62.8202 8.33784V9.21055H64.6243V0.847046H62.664V4.07052L62.6662 4.07266ZM62.3066 7.18919C61.8102 7.70255 60.9927 7.71539 60.4812 7.22128C60.4726 7.21272 60.4641 7.20416 60.4555 7.19561C60.2137 6.90684 60.0896 6.53893 60.1088 6.16247C60.0896 5.79884 60.2116 5.44163 60.447 5.16569C60.6695 4.91543 60.9905 4.77853 61.3265 4.78923C61.6903 4.77212 62.0434 4.90901 62.3024 5.16569C62.5527 5.43521 62.6833 5.79456 62.6662 6.16247C62.6833 6.53893 62.5549 6.9047 62.3088 7.18919" fill="#0E8D7D"/>
<path d="M68.0291 3.23633H66.0217V9.20843H68.0291V3.23633Z" fill="#0E8D7D"/>
<path d="M67.0254 -1.5001e-05C66.7087 -0.00429301 66.4027 0.119769 66.1801 0.346504C65.9511 0.564682 65.8227 0.866281 65.827 1.18285C65.8227 1.49943 65.949 1.80103 66.1801 2.0192C66.4027 2.24594 66.7087 2.37 67.0254 2.36572C67.3357 2.37 67.6353 2.2438 67.8493 2.0192C68.0762 1.80103 68.2003 1.49729 68.196 1.18285C68.1982 0.870559 68.074 0.571099 67.8493 0.352921C67.6353 0.126186 67.3379 -0.002154 67.0254 -1.5001e-05Z" fill="#0E8D7D"/>
<path d="M72.4161 4.74215C72.9104 4.73787 73.3727 4.99241 73.6359 5.41166L75.104 4.3721C74.8472 3.9165 74.4641 3.54859 73.9997 3.30902C73.4882 3.04806 72.919 2.91544 72.3433 2.92614C71.7548 2.91544 71.1727 3.05448 70.6527 3.33255C70.1712 3.59351 69.7774 3.99136 69.5164 4.47264C69.2424 4.98814 69.1055 5.56567 69.1162 6.15175C69.1055 6.7357 69.2424 7.31323 69.5164 7.83087C69.7753 8.31429 70.1712 8.71 70.6527 8.97096C71.1727 9.24903 71.7548 9.38807 72.3433 9.37737C72.919 9.38807 73.4882 9.25759 73.9997 8.99449C74.4641 8.75706 74.8493 8.38701 75.104 7.93141L73.6359 6.89185C73.3727 7.31109 72.9126 7.56563 72.4161 7.56136C72.0673 7.57633 71.7313 7.43516 71.4959 7.17848C71.2541 6.89185 71.1299 6.52608 71.1492 6.15175C71.1299 5.77743 71.2541 5.40952 71.4959 5.12503C71.7313 4.86835 72.0673 4.72932 72.4161 4.74215Z" fill="#0E8D7D"/>
<path d="M76.9315 -1.5001e-05C76.6148 -0.00429301 76.3088 0.119769 76.0862 0.346504C75.8573 0.564682 75.7289 0.866281 75.7331 1.18285C75.7289 1.49943 75.8551 1.80103 76.0862 2.0192C76.3088 2.24594 76.6148 2.37 76.9315 2.36572C77.2418 2.37 77.5415 2.2438 77.7555 2.0192C77.9823 1.80103 78.1064 1.49729 78.1021 1.18285C78.1043 0.870559 77.9802 0.571099 77.7555 0.352921C77.5415 0.126186 77.244 -0.002154 76.9315 -1.5001e-05Z" fill="#0E8D7D"/>
<path d="M77.9353 3.23633H75.9279V9.20843H77.9353V3.23633Z" fill="#0E8D7D"/>
<path d="M84.2097 3.36249C83.893 3.18282 83.5335 3.09084 83.1697 3.09512C82.7845 3.09084 82.4036 3.18068 82.059 3.35394C81.738 3.50794 81.4705 3.75393 81.2929 4.06195V3.23843H79.3326V9.21053H81.34L81.3293 5.8416C81.3293 5.31326 81.7573 4.8876 82.2859 4.88546C82.5384 4.88974 82.7781 4.99241 82.9557 5.17209C83.1355 5.34749 83.236 5.58919 83.2296 5.8416V9.21053H85.237V5.13573C85.2391 4.7721 85.1449 4.41702 84.963 4.10259C84.7833 3.79243 84.5222 3.53575 84.2097 3.36249Z" fill="#0E8D7D"/>
<path d="M92.7527 6.15175C92.8019 5.3154 92.4895 4.50044 91.8924 3.91222C91.2312 3.3518 90.3794 3.06731 89.5149 3.11864C88.9285 3.11009 88.3486 3.24057 87.8243 3.50153C87.3406 3.74323 86.9362 4.11756 86.6601 4.58172C86.3755 5.06942 86.2321 5.62556 86.2428 6.18811C86.2299 6.76351 86.3755 7.33034 86.6601 7.83087C86.9383 8.30359 87.347 8.68647 87.8371 8.93459C88.3828 9.20625 88.9884 9.34314 89.5983 9.32817C90.1826 9.33459 90.7625 9.24689 91.3189 9.06935C91.7705 8.94529 92.1792 8.70144 92.5023 8.36348L91.4152 7.16992C91.2055 7.35387 90.9551 7.48649 90.6876 7.55922C90.3623 7.65975 90.0242 7.71108 89.6839 7.70895C89.3373 7.71536 88.997 7.61911 88.7038 7.43515C88.4449 7.3004 88.2801 7.03516 88.2737 6.74212H92.7185C92.742 6.54747 92.7549 6.35282 92.7549 6.15817M88.2501 5.52502C88.2587 5.36888 88.3186 5.22128 88.4235 5.10792C88.5519 4.95391 88.7102 4.82985 88.8878 4.74429C89.3822 4.50686 89.9643 4.55392 90.4137 4.86621C90.617 5.02236 90.739 5.2662 90.739 5.52288L88.248 5.52716L88.2501 5.52502Z" fill="#0E8D7D"/>
</g>
<defs>
<clipPath id="clip0_43_268">
<rect width="221.4" height="42.8122" fill="white"/>
</clipPath>
</defs>
</svg>
