<svg width="48" height="48" viewBox="0 0 48 48" fill="none" xmlns="http://www.w3.org/2000/svg">
<g clip-path="url(#clip0_210_542)">
<path d="M24 5.00004C24 2.23804 26.238 3.53702e-05 29 3.53702e-05C31.762 3.53702e-05 34 2.23804 34 5.00004C34 7.76204 31.762 10 29 10C26.238 10 24 7.76204 24 5.00004ZM48 34C48 35.106 47.104 36 46 36H44V46C44 47.106 43.104 48 42 48C40.896 48 40 47.106 40 46V36H8V46C8 47.106 7.104 48 6 48C4.896 48 4 47.106 4 46V36H2C0.896 36 0 35.106 0 34C0 32.894 0.896 32 2 32H4V26.656C4 25.054 4.624 23.546 5.758 22.414L7.148 21.024C7.06 20.696 7 20.356 7 20C7 17.79 8.79 16 11 16C13.21 16 15 17.79 15 20C15 22.21 13.21 24 11 24C10.644 24 10.306 23.938 9.976 23.852L8.586 25.242C8.214 25.616 8 26.13 8 26.656V32H20V14.724L10.464 3.28004C9.756 2.43204 9.872 1.17004 10.72 0.464035C11.566 -0.245965 12.83 -0.127965 13.536 0.720035L22.936 12H35.062L44.464 0.720035C45.17 -0.127965 46.432 -0.243965 47.28 0.464035C48.128 1.17204 48.242 2.43204 47.536 3.28004L38 14.724V32H46C47.104 32 48 32.894 48 34ZM24 32H34V16H24V32Z" fill="#41BD99"/>
</g>
<defs>
<clipPath id="clip0_210_542">
<rect width="48" height="48" fill="white"/>
</clipPath>
</defs>
</svg>
