<svg width="172" height="63" viewBox="0 0 172 63" fill="none" xmlns="http://www.w3.org/2000/svg">
<g clip-path="url(#clip0_43_184)">
<path d="M19.3991 33.3416H19.7975C20.0741 33.3416 20.2948 33.5655 20.2948 33.8389V34.2373C20.2948 34.5139 20.0708 34.7346 19.7975 34.7346H19.3991C19.1225 34.7346 18.9018 34.5106 18.9018 34.2373V33.8389C18.9018 33.5622 19.1257 33.3383 19.4024 33.3383L19.3991 33.3416Z" fill="white"/>
<path d="M21.3321 33.3416H21.7305C22.0071 33.3416 22.2278 33.5655 22.2278 33.8389V34.2373C22.2278 34.5139 22.0039 34.7346 21.7305 34.7346H21.3321C21.0555 34.7346 20.8348 34.5106 20.8348 34.2373V33.8389C20.8348 33.5622 21.0588 33.3416 21.3321 33.3416Z" fill="white"/>
<path d="M26.5087 42.3842H26.9071C27.1837 42.3842 27.4043 42.6081 27.4043 42.8814V43.2798C27.4043 43.5565 27.1804 43.7771 26.9071 43.7771H26.5087C26.232 43.7771 26.0081 43.5532 26.0081 43.2766V42.8781C26.0081 42.6015 26.232 42.3809 26.5054 42.3809L26.5087 42.3842Z" fill="white"/>
<path d="M42.8321 32.4196H42.6279C42.3118 32.4196 42.1307 32.6007 42.1307 32.9168V40.1713C42.1307 40.3359 42.0681 40.3985 41.9034 40.3985H40.3063C39.1176 40.3985 38.5248 39.8255 38.4952 38.6565C38.5051 38.6005 38.5084 38.5445 38.5084 38.4787V38.3338C38.5084 37.8563 38.4359 37.4052 38.2976 36.9902V36.9804C38.1461 36.5621 37.9321 36.1966 37.6588 35.8904C37.3854 35.5841 37.0529 35.3404 36.6774 35.1692C36.2988 34.998 35.8773 34.9091 35.4261 34.9091C34.6687 34.9091 34.0365 35.1462 33.5524 35.6138C33.0782 36.0748 32.7258 36.7334 32.5118 37.5764C32.4558 37.797 32.4097 38.0078 32.3834 38.2086C32.357 38.3996 32.3274 38.5873 32.2978 38.7619C32.2747 38.9199 32.2451 39.0846 32.2088 39.2624C32.1792 39.4172 32.1331 39.5654 32.0738 39.707C31.9816 39.921 31.8334 40.0922 31.6326 40.2141C31.435 40.3359 31.1946 40.3985 30.9246 40.3985H29.9861C29.9301 40.3985 29.7819 40.3985 29.693 40.1087C29.614 39.8551 29.5283 39.4666 29.4427 38.9529C29.3044 38.1461 29.1003 37.471 28.8302 36.9441C28.5602 36.4107 28.1914 35.9859 27.7402 35.6829C27.3418 35.4096 26.9005 35.212 26.4263 35.0935C25.7842 34.9354 25.119 34.886 24.4538 34.9453C24.2694 34.9617 24.0883 34.9848 23.9138 35.0177C23.6141 35.0704 23.4758 35.2845 23.5252 35.6006L23.5614 35.7982C23.5944 35.9562 23.6668 36.0715 23.7722 36.1373C23.9204 36.2296 24.0916 36.1999 24.1542 36.1835C24.737 36.0748 25.4055 36.0945 26.0411 36.2361C26.3967 36.3152 26.726 36.4568 27.0191 36.6576C27.3352 36.8684 27.5921 37.1648 27.7831 37.5369C27.9773 37.9254 28.1354 38.4655 28.254 39.1439C28.2935 39.3777 28.333 39.6181 28.3758 39.8683C28.4054 40.0527 28.4449 40.2305 28.4943 40.3985H22.9983C21.7799 40.3985 21.1872 39.7893 21.1872 38.5379V36.2296C21.1872 35.9134 21.0061 35.729 20.6866 35.729H20.4792C20.1631 35.729 19.9819 35.9101 19.9819 36.2296V38.5379C19.9819 39.7893 19.3859 40.3985 18.1576 40.3985C16.9293 40.3985 16.3761 39.8255 16.3465 38.6565C16.3563 38.6005 16.3596 38.5445 16.3596 38.4787V38.3338C16.3596 37.8563 16.2872 37.4052 16.1489 36.9902V36.9804C15.9974 36.5621 15.7801 36.1966 15.51 35.8904C15.2367 35.5841 14.9041 35.3404 14.5287 35.1692C14.15 34.998 13.7285 34.9091 13.2741 34.9091C12.5167 34.9091 11.8844 35.1462 11.4037 35.6138C10.9295 36.0715 10.5771 36.7334 10.3631 37.5764C10.3071 37.797 10.261 38.0111 10.2347 38.2086C10.2083 38.3996 10.1787 38.5873 10.149 38.7619C10.126 38.9199 10.0964 39.0846 10.0601 39.2624C10.0305 39.4139 9.98439 39.5654 9.92511 39.707C9.83291 39.921 9.68473 40.0922 9.48385 40.2141C9.27969 40.3359 9.03601 40.3985 8.7561 40.3985H6.03279L7.60355 38.9529C7.76161 38.8047 7.83735 38.617 7.82747 38.3996C7.80442 37.8793 7.69905 37.3986 7.52122 36.9705C7.3434 36.5424 7.09972 36.1703 6.79676 35.8673C6.49381 35.5644 6.13487 35.3273 5.72983 35.1626C5.32479 34.9947 4.87695 34.9091 4.40275 34.9091C3.92856 34.9091 3.49389 34.9914 3.09543 35.156C2.69369 35.3174 2.33804 35.5578 2.03509 35.864C1.73542 36.167 1.48845 36.5391 1.30404 36.9705C1.11963 37.3986 1.01426 37.8826 0.991205 38.4029C0.981326 38.6104 1.05706 38.7981 1.21513 38.9562L2.80894 40.4215C1.95276 40.4973 1.28428 40.7344 0.816676 41.1262C0.28321 41.5741 0.0131836 42.2261 0.0131836 43.0625C0.0131836 43.5664 1.21513 43.4412 1.21513 43.0625C1.21513 42.5324 1.37319 42.1602 1.69591 41.9264C2.0285 41.6861 2.58831 41.5642 3.36216 41.5642H3.53011C3.7705 41.5642 3.95491 41.5313 4.09321 41.4588C4.19859 41.4061 4.30067 41.3107 4.41263 41.1691C4.5213 41.3107 4.62668 41.4061 4.73205 41.4588C4.86707 41.528 5.05147 41.5642 5.27211 41.5642H8.7561C9.25334 41.5642 9.69131 41.4555 10.0568 41.2448C10.3763 41.0604 10.6364 40.8035 10.8274 40.4775C11.16 40.8299 11.5288 41.0966 11.9273 41.2744C12.3784 41.4753 12.8394 41.5774 13.3004 41.5774C13.8306 41.5774 14.3279 41.4523 14.7856 41.2053C15.1742 40.9945 15.5035 40.7014 15.7603 40.3293C16.2016 41.1493 17.0084 41.5642 18.1609 41.5642C18.7767 41.5642 19.3102 41.4523 19.7448 41.2283C20.1137 41.0406 20.4199 40.7739 20.6537 40.438C21.1049 41.1855 21.8919 41.5609 22.995 41.5609H30.9509C31.4284 41.5543 31.8499 41.4457 32.2056 41.2415C32.525 41.0571 32.7851 40.7969 32.9761 40.4742C33.3087 40.8266 33.6775 41.0933 34.0793 41.2711C34.5304 41.472 34.9914 41.5741 35.4525 41.5741C35.9826 41.5741 36.4799 41.449 36.9376 41.202C37.3262 40.9912 37.6522 40.6982 37.9123 40.326C38.3536 41.146 39.1604 41.5609 40.3129 41.5609H41.91C42.1768 41.5609 42.4007 41.5412 42.5785 41.5049C42.7728 41.4621 42.9309 41.3831 43.0461 41.2678L43.0593 41.2547C43.168 41.1394 43.2404 40.9945 43.2832 40.8134C43.3227 40.6422 43.3392 40.4248 43.3392 40.168V32.9135C43.3392 32.5974 43.1581 32.4163 42.8387 32.4163L42.8321 32.4196ZM37.3031 38.3371C37.3031 38.673 37.2504 38.9726 37.1483 39.2295C37.0463 39.4863 36.908 39.707 36.7367 39.8815C36.5655 40.056 36.3646 40.191 36.1374 40.2799C35.5908 40.494 34.9519 40.4479 34.3361 40.1515C33.9904 39.9836 33.6644 39.7135 33.3647 39.3447C33.4141 39.1241 33.4569 38.8837 33.4931 38.6334C33.5261 38.3766 33.5919 38.0802 33.6874 37.7443C33.8422 37.1977 34.0595 36.7828 34.3361 36.5095C34.6029 36.246 34.9684 36.1143 35.4195 36.1143C35.7027 36.1143 35.9662 36.1703 36.1967 36.2757C36.4305 36.3843 36.6281 36.5391 36.7927 36.7301C36.9574 36.9244 37.0858 37.1615 37.1714 37.4348C37.2603 37.7081 37.3031 38.0111 37.3031 38.3371ZM15.1544 38.3371C15.1544 38.673 15.1017 38.9759 14.9996 39.2295C14.8975 39.4863 14.7592 39.707 14.588 39.8815C14.4168 40.056 14.2159 40.191 13.9887 40.2799C13.442 40.494 12.8032 40.4479 12.1874 40.1515C11.8416 39.9836 11.5156 39.7135 11.2193 39.3447C11.2687 39.1241 11.3115 38.8837 11.3477 38.6334C11.3806 38.3799 11.4465 38.0835 11.542 37.7443C11.6967 37.1977 11.9141 36.7828 12.1907 36.5095C12.4574 36.246 12.823 36.1143 13.2741 36.1143C13.5573 36.1143 13.8207 36.1703 14.0512 36.2757C14.2818 36.3843 14.4826 36.5391 14.6473 36.7301C14.8119 36.9244 14.9404 37.1615 15.026 37.4348C15.1149 37.7081 15.1577 38.0111 15.1577 38.3371H15.1544ZM6.62553 38.1988L4.39617 40.303L2.16681 38.1988C2.19644 37.9189 2.26889 37.6521 2.38414 37.4117C2.50928 37.1483 2.67393 36.9211 2.8748 36.7334C3.07567 36.5457 3.30618 36.3942 3.56633 36.2822C4.07345 36.0649 4.709 36.0649 5.22271 36.2757C5.47956 36.3909 5.71337 36.5424 5.91424 36.7334C6.11511 36.9244 6.27976 37.1516 6.4049 37.4117C6.52015 37.6554 6.5926 37.9189 6.62224 38.1988H6.62553Z" fill="white"/>
<path d="M45.6739 32.4196H45.4665C45.1919 32.4196 44.9692 32.6422 44.9692 32.9168V41.067C44.9692 41.3416 45.1919 41.5642 45.4665 41.5642H45.6739C45.9486 41.5642 46.1712 41.3416 46.1712 41.067V32.9168C46.1712 32.6422 45.9486 32.4196 45.6739 32.4196Z" fill="white"/>
<path d="M53.6265 35.2186C53.5113 35.1034 53.3598 35.0243 53.1721 34.9815C52.9976 34.942 52.7835 34.9255 52.5135 34.9255H51.7298C51.0876 34.9255 50.5179 35.0144 50.0339 35.1857C49.5498 35.3602 49.1349 35.6039 48.8023 35.9101C48.4697 36.2164 48.2194 36.5885 48.0548 37.0133C47.8934 37.4315 47.8111 37.8991 47.8111 38.3997C47.8111 38.8508 47.8835 39.2723 48.0251 39.651C48.1667 40.033 48.3676 40.3689 48.6179 40.6554C48.8714 40.9418 49.1711 41.1691 49.5136 41.3304C49.856 41.4918 50.2282 41.5741 50.6167 41.5741C51.1469 41.5741 51.6211 41.4523 52.0228 41.2119C52.2962 41.0472 52.5398 40.8398 52.7407 40.5961C52.7341 41.09 52.6913 41.5181 52.6123 41.8705C52.53 42.236 52.3982 42.5357 52.2204 42.7662C52.0426 42.9934 51.8253 43.1547 51.5552 43.2601C51.2062 43.3951 50.7452 43.4445 50.1788 43.4083C50.0536 43.4017 49.9252 43.3885 49.7704 43.3721C49.6222 43.3721 49.507 43.4017 49.4115 43.4577C49.2962 43.5269 49.237 43.6586 49.237 43.8463V43.9912C49.237 44.2941 49.395 44.4818 49.6815 44.5246C50.0405 44.574 50.3763 44.5971 50.6793 44.5971C51.7495 44.5971 52.5662 44.2447 53.1062 43.5466C53.6364 42.8617 53.913 41.8441 53.9196 40.5203V36.3613C53.9196 36.0978 53.8999 35.8739 53.8603 35.6928C53.8208 35.4985 53.7385 35.3405 53.6232 35.2252L53.6265 35.2186ZM52.7407 36.1275V38.3964C52.7407 38.6697 52.6913 38.9298 52.5925 39.1669V39.1768C52.4905 39.4205 52.3587 39.6345 52.1908 39.8156C52.0228 39.9968 51.822 40.1384 51.598 40.2437C51.1601 40.4479 50.597 40.4512 50.1294 40.2536C49.9021 40.1581 49.7013 40.0198 49.5333 39.842C49.3654 39.6675 49.2337 39.4534 49.1382 39.2064C49.0427 38.9562 48.9966 38.6796 48.9966 38.3832C48.9966 38.0539 49.0493 37.7476 49.1579 37.471C49.2633 37.1977 49.4247 36.9606 49.6354 36.7663C49.8495 36.572 50.1294 36.414 50.4685 36.2987C50.811 36.1835 51.2259 36.1242 51.7001 36.1242H52.7374L52.7407 36.1275Z" fill="white"/>
<path d="M62.2476 35.9595C61.9908 35.6434 61.6647 35.3865 61.2828 35.1988C60.9008 35.0079 60.4463 34.9124 59.9359 34.9124C59.4255 34.9124 58.9711 35.0111 58.5825 35.2054C58.1939 35.3997 57.8679 35.6566 57.6078 35.9727C57.3476 36.2855 57.15 36.6511 57.0216 37.0561C56.8932 37.4578 56.8273 37.8728 56.8273 38.2877C56.8273 38.7026 56.8899 39.0978 57.015 39.483C57.1402 39.8749 57.3345 40.2273 57.5913 40.5335C57.8482 40.843 58.1742 41.0933 58.5594 41.281C58.948 41.472 59.4025 41.5675 59.9129 41.5675C60.4233 41.5675 60.8909 41.4687 61.2795 41.2744C61.6647 41.09 61.9908 40.8365 62.2509 40.5269C62.5045 40.2174 62.702 39.8584 62.8305 39.46C62.9589 39.0648 63.0248 38.6565 63.0248 38.2515C63.0248 37.8464 62.9589 37.4249 62.8305 37.0298C62.702 36.6313 62.5045 36.2724 62.2509 35.9595H62.2476ZM61.8195 38.3107C61.8195 38.5676 61.78 38.8277 61.7043 39.0879C61.6285 39.3381 61.5133 39.5621 61.3552 39.7531C61.2004 39.9441 60.9996 40.1021 60.7625 40.2207C60.5287 40.3392 60.252 40.3985 59.9359 40.3985C59.6198 40.3985 59.3267 40.3392 59.0896 40.2207C58.8525 40.1021 58.6517 39.9408 58.4936 39.7432C58.3355 39.5456 58.217 39.3151 58.1346 39.0615C58.0556 38.808 58.0128 38.5412 58.0128 38.2745C58.0128 38.0078 58.0523 37.7279 58.1346 37.4677C58.2137 37.2109 58.3355 36.9804 58.4936 36.7795C58.6517 36.5819 58.8492 36.4173 59.0863 36.2954C59.3201 36.1736 59.5967 36.111 59.9129 36.111C60.229 36.111 60.5089 36.1703 60.7427 36.2888C60.9732 36.4173 61.1741 36.5852 61.3354 36.7894C61.4968 36.9968 61.6186 37.2339 61.701 37.4941C61.78 37.7575 61.8228 38.0308 61.8228 38.3074L61.8195 38.3107Z" fill="white"/>
<path d="M58.836 32.7587H59.2345C59.5111 32.7587 59.7317 32.9827 59.7317 33.256V33.6544C59.7317 33.9277 59.5078 34.1517 59.2345 34.1517H58.836C58.5594 34.1517 58.3388 33.9277 58.3388 33.6544V33.256C58.3388 32.9794 58.5627 32.7587 58.836 32.7587Z" fill="white"/>
<path d="M60.769 32.7587H61.1675C61.4408 32.7587 61.6647 32.9827 61.6647 33.256V33.6577C61.6647 33.931 61.4408 34.155 61.1675 34.155H60.769C60.4924 34.155 60.2718 33.931 60.2718 33.6577V33.2593C60.2718 32.9827 60.4957 32.762 60.769 32.762V32.7587Z" fill="white"/>
<path d="M78.4327 34.9124H78.2285C77.9124 34.9124 77.7313 35.0935 77.7313 35.4096V40.1746C77.7313 40.3392 77.6687 40.4018 77.5041 40.4018H76.5129C75.9992 40.4018 75.6073 40.247 75.3472 39.9408C75.0804 39.6279 74.9454 39.1603 74.9454 38.5412V35.785C74.9454 35.4689 74.7643 35.2878 74.4449 35.2878H74.2407C73.9246 35.2878 73.7435 35.4689 73.7435 35.785V38.5412C73.7435 39.1834 73.6216 39.6609 73.3812 39.9605C73.1441 40.2569 72.8247 40.3985 72.4065 40.3985C71.9521 40.3985 71.5931 40.2437 71.3462 39.9408C71.0893 39.6279 70.9609 39.157 70.9609 38.5412V35.785C70.9609 35.4689 70.7798 35.2878 70.4636 35.2878H70.2595C69.9433 35.2878 69.7622 35.4689 69.7622 35.785V38.5412C69.7622 39.7926 69.1662 40.4018 67.9379 40.4018H66.7327V36.2328C66.7327 35.9167 66.5516 35.7323 66.2354 35.7323H66.0313C65.7151 35.7323 65.5307 35.9134 65.5307 36.2328V41.9034C65.5307 42.3282 65.4616 42.6279 65.32 42.7958C65.1323 43.0197 64.7964 43.0856 64.2629 43C64.1312 43 64.0225 43.0164 63.9303 43.0494C63.8052 43.0955 63.7262 43.214 63.6932 43.4017L63.6735 43.517C63.6603 43.5565 63.6537 43.6059 63.6537 43.6816C63.6537 43.922 63.7953 44.0867 64.0456 44.1295C64.3354 44.1789 64.5988 44.2052 64.8293 44.2052C65.4747 44.2052 65.9588 44.0076 66.2717 43.6158C66.5779 43.2338 66.7327 42.6575 66.7327 41.9034V41.5675H67.9379C68.5438 41.5675 69.074 41.4555 69.5087 41.2382C69.8775 41.0538 70.1804 40.7969 70.4142 40.4709C70.8226 41.1987 71.4943 41.5675 72.4131 41.5675C72.8939 41.5675 73.3253 41.4588 73.6908 41.2481C73.9904 41.0736 74.2473 40.8299 74.4515 40.5236C74.873 41.2184 75.5678 41.5708 76.5261 41.5708H77.5172C77.784 41.5708 78.0079 41.551 78.1857 41.5148C78.38 41.472 78.5381 41.393 78.6533 41.2777C78.7686 41.1625 78.8476 41.011 78.8904 40.8233C78.9267 40.6488 78.9464 40.4347 78.9464 40.1779V35.4129C78.9464 35.0968 78.7653 34.9156 78.4492 34.9156L78.4327 34.9124Z" fill="white"/>
<path d="M81.1132 32.7225V32.9728C81.1132 33.1177 81.2087 33.2132 81.3536 33.2132H82.9672C83.1121 33.2132 83.2076 33.1177 83.2076 32.9728V32.7225C83.2076 32.5776 83.1121 32.4821 82.9672 32.4821H82.3283C82.2098 32.4821 82.1143 32.4492 82.0353 32.3866C81.9628 32.3273 81.9299 32.2483 81.9299 32.1429C81.9299 32.0474 81.9595 31.9816 82.0254 31.9355C82.1538 31.8466 82.3086 31.8334 82.5193 31.8927C82.549 31.9025 82.5819 31.9058 82.6247 31.9058C82.7235 31.9058 82.7992 31.8531 82.8322 31.7642L82.9178 31.5206C82.9342 31.4712 82.9408 31.4152 82.931 31.3592C82.9178 31.2835 82.8618 31.2275 82.7926 31.2077C82.4535 31.0727 82.1176 31.0595 81.8179 31.1715C81.6829 31.2209 81.5644 31.29 81.4656 31.379C81.3635 31.4679 81.2845 31.57 81.2318 31.6819C81.1758 31.7972 81.1461 31.9223 81.1461 32.054C81.1461 32.222 81.1824 32.3702 81.2515 32.4953C81.1626 32.5282 81.1099 32.6105 81.1099 32.7192L81.1132 32.7225Z" fill="white"/>
<path d="M87.1394 32.4196H86.9352C86.6191 32.4196 86.438 32.6007 86.438 32.9168V40.1713C86.438 40.3359 86.3754 40.3985 86.2107 40.3985H83.6982L83.1417 34.3558C83.1087 34.0463 82.9276 33.8718 82.6444 33.8718H82.404C82.2559 33.8718 82.134 33.9146 82.0352 34.0035C81.9727 34.0595 81.8739 34.1813 81.9068 34.3822L82.4501 40.4018H80.8102C80.4941 40.4018 80.313 40.5829 80.313 40.899V41.067C80.313 41.3831 80.4941 41.5642 80.8102 41.5642H86.214C86.4808 41.5642 86.7047 41.5445 86.8825 41.5082C87.0768 41.4654 87.2349 41.3864 87.3501 41.2711C87.4654 41.1559 87.5444 41.0044 87.5839 40.8167C87.6234 40.6455 87.6432 40.4281 87.6432 40.1713V32.9168C87.6432 32.6007 87.4621 32.4196 87.1427 32.4196H87.1394Z" fill="white"/>
<path d="M89.9813 32.4196H89.7738C89.4992 32.4196 89.2766 32.6422 89.2766 32.9168V41.067C89.2766 41.3416 89.4992 41.5642 89.7738 41.5642H89.9813C90.2559 41.5642 90.4785 41.3416 90.4785 41.067V32.9168C90.4785 32.6422 90.2559 32.4196 89.9813 32.4196Z" fill="white"/>
<path d="M98.9349 42.3842H98.5331C98.2585 42.3842 98.0359 42.6068 98.0359 42.8814V43.2831C98.0359 43.5578 98.2585 43.7804 98.5331 43.7804H98.9349C99.2095 43.7804 99.4321 43.5578 99.4321 43.2831V42.8814C99.4321 42.6068 99.2095 42.3842 98.9349 42.3842Z" fill="white"/>
<path d="M119.635 32.4196H119.431C119.114 32.4196 118.933 32.6007 118.933 32.9168V40.1713C118.933 40.3359 118.871 40.3985 118.706 40.3985H117.112C115.894 40.3985 115.301 39.7893 115.301 38.5379C115.301 38.0144 115.209 37.5237 115.024 37.0824C114.84 36.6412 114.58 36.2526 114.251 35.9299C113.921 35.6072 113.52 35.3536 113.059 35.1758C112.598 34.998 112.087 34.9058 111.54 34.9058C110.582 34.9058 109.746 35.1297 109.054 35.5742C108.514 35.92 108.073 36.3646 107.737 36.9013L107.747 32.9135C107.747 32.5974 107.566 32.4163 107.25 32.4163H107.055C106.739 32.4163 106.558 32.5974 106.558 32.9135V40.3952H105.63C104.411 40.3952 103.818 39.786 103.818 38.5347V36.2263C103.818 35.9101 103.637 35.7257 103.321 35.7257H103.117C102.801 35.7257 102.616 35.9068 102.616 36.2263V38.5347C102.616 39.786 102.02 40.3952 100.792 40.3952H97.5782C97.1369 40.3952 96.745 40.3623 96.4124 40.2964C96.093 40.2338 95.8197 40.1153 95.6057 39.9473C95.3949 39.7827 95.2303 39.5522 95.1249 39.2591C95.0129 38.9595 94.9569 38.5577 94.9569 38.067C94.9569 37.7015 95.0096 37.3129 95.1117 36.9145C95.1216 36.8717 95.1282 36.8223 95.1282 36.763C95.1282 36.6346 95.0821 36.3382 94.6672 36.3382H94.4729C94.193 36.3382 94.002 36.4864 93.9427 36.7531C93.811 37.2306 93.7451 37.7048 93.7451 38.1691C93.7451 38.8047 93.8307 39.3447 94.002 39.7728C94.1732 40.2075 94.4301 40.5631 94.7627 40.8332C95.092 41.0999 95.5003 41.2909 95.9778 41.4029C96.4454 41.5148 96.9854 41.5708 97.5815 41.5708H100.795C101.935 41.5708 102.778 41.1921 103.298 40.4479C103.733 41.1888 104.513 41.5642 105.61 41.5675L105.62 41.5214V41.5675H112.285C112.901 41.5675 113.434 41.4523 113.869 41.225C114.237 41.0406 114.544 40.7772 114.778 40.4413C115.229 41.1888 116.016 41.5642 117.119 41.5675H118.716C118.983 41.5675 119.207 41.5477 119.384 41.5115C119.572 41.472 119.724 41.3963 119.836 41.2909H119.865V41.2613C119.974 41.1493 120.046 41.0011 120.089 40.8233C120.125 40.6488 120.145 40.4347 120.145 40.1779V32.9234C120.145 32.6073 119.964 32.4261 119.648 32.4261L119.635 32.4196ZM114.096 38.5412C114.096 39.1867 113.948 39.6609 113.651 39.9572C113.355 40.2503 112.891 40.4018 112.272 40.4018H107.727V39.5621C107.744 39.0846 107.852 38.6334 108.057 38.2218C108.261 37.8069 108.537 37.4381 108.88 37.1252C109.219 36.8124 109.624 36.5621 110.078 36.3843C110.533 36.2065 111.023 36.1143 111.534 36.1143C111.936 36.1143 112.298 36.1736 112.617 36.2921C112.93 36.4107 113.2 36.5753 113.418 36.7828C113.632 36.9902 113.803 37.2471 113.925 37.5402C114.04 37.8365 114.096 38.1724 114.096 38.5412Z" fill="white"/>
<path d="M2.31829 15.0424H2.71674C2.99006 15.0424 3.21398 15.2663 3.21398 15.5397V15.9414C3.21398 16.2147 2.99006 16.4387 2.71674 16.4387H2.31829C2.04168 16.4387 1.82104 16.2147 1.82104 15.9414V15.543C1.82104 15.2663 2.04497 15.0457 2.31829 15.0457V15.0424Z" fill="white"/>
<path d="M4.25457 15.0424H4.65302C4.92634 15.0424 5.15026 15.2663 5.15026 15.5397V15.9381C5.15026 16.2147 4.92634 16.4354 4.65302 16.4354H4.25457C3.98125 16.4354 3.75732 16.2114 3.75732 15.9381V15.5397C3.75732 15.263 3.98125 15.0424 4.25457 15.0424Z" fill="white"/>
<path d="M14.8449 24.9905H15.2433C15.5199 24.9905 15.7406 25.2145 15.7406 25.4878V25.8862C15.7406 26.1628 15.5166 26.3835 15.2433 26.3835H14.8449C14.5683 26.3835 14.3476 26.1596 14.3476 25.8862V25.4878C14.3476 25.2112 14.5716 24.9905 14.8449 24.9905Z" fill="white"/>
<path d="M16.7779 24.9905H17.1763C17.4529 24.9905 17.6768 25.2145 17.6768 25.4911V25.8895C17.6768 26.1661 17.4529 26.3868 17.1796 26.3868H16.7779C16.5045 26.3868 16.2806 26.1628 16.2806 25.8895V25.4911C16.2806 25.2145 16.5045 24.9938 16.7779 24.9938V24.9905Z" fill="white"/>
<path d="M0.780453 23.1267C1.02084 23.3803 1.31392 23.5812 1.6498 23.7195C1.9824 23.8578 2.34792 23.9302 2.7365 23.9302C3.33582 23.9302 3.84624 23.8182 4.24798 23.6009C4.5213 23.4494 4.7584 23.2519 4.95268 23.0115C4.95927 23.1728 4.97903 23.3078 5.00537 23.4264C5.04818 23.6141 5.12721 23.7656 5.24247 23.8808C5.35772 23.9961 5.51579 24.0751 5.70678 24.1113C5.8879 24.1541 6.10523 24.1739 6.37855 24.1739H16.4979C16.7647 24.1739 16.9886 24.1541 17.1664 24.1179C17.3607 24.0751 17.5188 23.9961 17.634 23.8808C17.7493 23.7656 17.8283 23.6141 17.8711 23.4264C17.9073 23.2519 17.9271 23.0378 17.9271 22.781V18.8392C17.9271 18.5231 17.746 18.3387 17.4299 18.3387H17.2257C16.9096 18.3387 16.7285 18.5198 16.7285 18.8392V22.781C16.7285 22.9456 16.6659 23.0082 16.5012 23.0082H6.38185C6.2172 23.0082 6.15463 22.9456 6.15463 22.781V17.4628C6.15463 17.1466 5.97351 16.9655 5.65739 16.9655H5.45322C5.13709 16.9655 4.95598 17.1466 4.95598 17.4628V17.6175C4.81109 17.5978 4.66949 17.5813 4.52789 17.5681C3.75074 17.5023 3.03945 17.5681 2.41049 17.769C1.933 17.9172 1.50821 18.1411 1.15585 18.4276C0.796918 18.7174 0.51372 19.0862 0.31614 19.5143C0.115267 19.9457 0.0131836 20.4462 0.0131836 21.006C0.0131836 21.4407 0.0823366 21.8424 0.220643 22.2047C0.358949 22.5669 0.553236 22.8797 0.793625 23.1333L0.780453 23.1267ZM1.20196 21.0258C1.20196 20.6537 1.27111 20.3178 1.40612 20.0247C1.54114 19.7349 1.73213 19.4814 1.97252 19.2772C2.20961 19.073 2.50269 18.915 2.84187 18.8096C3.18434 18.7009 3.56633 18.6482 3.96808 18.6482C4.29079 18.6482 4.62009 18.6812 4.9461 18.7437V20.41C4.9461 20.7656 4.9 21.0949 4.80779 21.3847C4.709 21.6811 4.5707 21.9347 4.39617 22.1454C4.22493 22.3496 4.01747 22.5109 3.77708 22.6229C3.53999 22.7348 3.26996 22.7908 2.97688 22.7908C2.42037 22.7908 1.9791 22.6361 1.66956 22.3331C1.36002 22.0301 1.20196 21.5922 1.20196 21.0291V21.0258Z" fill="white"/>
<path d="M19.9391 24.1739H23.7491C24.0159 24.1739 24.2398 24.1541 24.4176 24.1179C24.6119 24.0751 24.77 23.9961 24.8852 23.8808C25.0005 23.7656 25.0795 23.6141 25.119 23.4264C25.1585 23.2518 25.1783 23.0345 25.1783 22.7809V21.4012C25.1783 20.1564 24.7798 19.185 23.9928 18.5165C23.2124 17.8546 22.0664 17.5154 20.578 17.5154C20.2849 17.5154 20.117 17.6966 20.117 18.0127V18.2169C20.117 18.668 20.4232 18.7141 20.5549 18.7141C21.7272 18.7141 22.5999 18.9413 23.1531 19.3925C23.6964 19.8337 23.9731 20.522 23.9731 21.4341V22.7777C23.9731 22.9423 23.9105 23.0049 23.7458 23.0049H19.9358C19.6197 23.0049 19.4386 23.186 19.4386 23.5021V23.6701C19.4386 23.9862 19.6197 24.1673 19.9358 24.1673L19.9391 24.1739Z" fill="white"/>
<path d="M62.9194 24.1739C63.1828 24.1739 63.41 24.1541 63.5879 24.1179C63.7756 24.0784 63.927 24.0027 64.039 23.8973H64.0686V23.8677C64.1773 23.7557 64.2498 23.6075 64.2893 23.4297C64.3288 23.2584 64.3452 23.0411 64.3452 22.7843V15.5298C64.3452 15.2136 64.1641 15.0325 63.848 15.0325H63.6405C63.3244 15.0325 63.1433 15.2136 63.1433 15.5298V22.7843C63.1433 22.9489 63.0807 23.0115 62.9161 23.0115H60.308C59.0896 23.0115 58.4969 22.4023 58.4969 21.1509V18.0193C58.4969 17.7032 58.3158 17.522 57.9996 17.522H57.7922C57.476 17.522 57.2949 17.7032 57.2949 18.0193V21.1509C57.2949 21.7931 57.1698 22.2705 56.9261 22.5702C56.6857 22.8666 56.3696 23.0082 55.9547 23.0082C55.5002 23.0082 55.1413 22.8534 54.8943 22.5505C54.6375 22.2376 54.5091 21.7667 54.5091 21.1509V18.3947C54.5091 18.0786 54.3279 17.8974 54.0118 17.8974H53.8044C53.4882 17.8974 53.3071 18.0786 53.3071 18.3947V21.1509C53.3071 21.7931 53.1853 22.2705 52.9416 22.5702C52.7045 22.8666 52.3851 23.0082 51.9669 23.0082C51.5124 23.0082 51.1535 22.8534 50.9065 22.5505C50.6497 22.2376 50.5212 21.7667 50.5212 21.1509V18.3947C50.5212 18.0786 50.3401 17.8974 50.024 17.8974H49.8165C49.5004 17.8974 49.3193 18.0786 49.3193 18.3947V21.1509C49.3193 22.4023 48.7233 23.0115 47.495 23.0115H44.7717L46.3424 21.5658C46.5005 21.4177 46.5762 21.23 46.5663 21.0126C46.54 20.4923 46.4379 20.0115 46.2601 19.5835C46.0823 19.1554 45.8386 18.7833 45.5356 18.4803C45.236 18.1806 44.877 17.9403 44.4687 17.7756C44.0637 17.6077 43.6158 17.522 43.1416 17.522C42.6674 17.522 42.2327 17.6044 41.8343 17.769C41.4293 17.9337 41.0736 18.1708 40.7739 18.477C40.4743 18.7833 40.2273 19.1554 40.0429 19.5835C39.8585 20.0115 39.7531 20.4923 39.7301 21.0159C39.7202 21.2234 39.7959 21.4111 39.954 21.5691L41.5116 23.0148H32.66V18.9677C32.66 18.7042 32.6402 18.4803 32.6007 18.2992C32.5612 18.1049 32.4789 17.9468 32.3636 17.8316C32.2484 17.7163 32.0969 17.6373 31.9092 17.5945C31.738 17.555 31.5206 17.5385 31.2506 17.5385H30.4669C29.7654 17.5385 29.1628 17.634 28.6722 17.825C28.1749 18.016 27.7633 18.2761 27.4505 18.5956C27.1376 18.915 26.9038 19.2805 26.7589 19.6855C26.6173 20.084 26.5482 20.4989 26.5482 20.9171C26.5482 21.3353 26.6173 21.7305 26.7556 22.1191C26.8972 22.5142 27.1245 22.8666 27.4307 23.1728C27.737 23.4791 28.1453 23.7293 28.6392 23.9105C29.1332 24.0916 29.7391 24.1838 30.4471 24.1838H31.4152C31.3132 24.8259 31.1024 25.2935 30.7929 25.5734C30.4076 25.9192 29.7753 26.0674 28.9224 26.0147C28.7973 26.0081 28.6656 25.9949 28.5141 25.9785C28.3659 25.9785 28.2474 26.0081 28.1552 26.0674C28.0465 26.1398 27.9905 26.2682 27.9905 26.4527V26.6107C27.9905 26.9038 28.1486 27.0915 28.4351 27.131C28.794 27.1804 29.1233 27.2035 29.4197 27.2035C30.3549 27.2035 31.0991 26.9334 31.6326 26.4033C32.1397 25.8961 32.4657 25.1486 32.6007 24.1838H42.2723C42.3678 24.1838 42.4534 24.1805 42.5225 24.1706C42.6049 24.1607 42.6839 24.141 42.7629 24.108C42.8485 24.0718 42.9309 24.0158 43.0099 23.9434C43.0527 23.9039 43.0988 23.8545 43.1449 23.7952C43.2766 23.9566 43.3985 24.0586 43.5137 24.1047C43.6487 24.1607 43.8167 24.1871 44.011 24.1871H47.4917C48.0976 24.1871 48.6278 24.0751 49.0624 23.8578C49.428 23.6734 49.7342 23.4165 49.968 23.0905C50.3763 23.8183 51.0481 24.1871 51.9669 24.1871C52.4476 24.1871 52.879 24.0784 53.2445 23.8677C53.5442 23.6931 53.7945 23.4494 53.9953 23.1465C54.4103 23.838 55.0689 24.1904 55.958 24.1904C56.4388 24.1904 56.8701 24.0817 57.2422 23.8644C57.5485 23.6865 57.8021 23.433 58.0029 23.1168C58.4672 23.8281 59.2411 24.1904 60.3113 24.1904H62.9194V24.1739ZM43.9715 18.8853C44.2316 18.9973 44.4654 19.1488 44.6696 19.3365C44.8639 19.5242 45.0285 19.7547 45.1569 20.0148C45.2722 20.2585 45.3446 20.522 45.3743 20.8019L43.1449 22.9061L40.9155 20.8019C40.9452 20.522 41.0176 20.2585 41.1329 20.0148C41.258 19.7514 41.4227 19.5242 41.6235 19.3365C41.8244 19.1488 42.0582 18.994 42.3151 18.8853C42.8255 18.668 43.461 18.668 43.9747 18.8853H43.9715ZM31.4844 18.7339V23.0082H30.4734C29.9499 23.0082 29.5086 22.9456 29.1562 22.8238C28.8105 22.7019 28.5273 22.5373 28.3165 22.3397C28.1091 22.1421 27.9576 21.9149 27.8687 21.6613C27.7765 21.4045 27.7304 21.1378 27.7304 20.871C27.7304 20.6043 27.7765 20.3408 27.8687 20.0807C27.9576 19.8271 28.1058 19.5999 28.3132 19.4023C28.5207 19.2015 28.8006 19.0401 29.1464 18.9183C29.4987 18.7964 29.9367 18.7339 30.4504 18.7339H31.4877H31.4844Z" fill="white"/>
<path d="M66.4857 15.0259H66.6899C66.9665 15.0259 67.1871 15.2499 67.1871 15.5232V23.6734C67.1871 23.95 66.9632 24.1706 66.6899 24.1706H66.4857C66.2091 24.1706 65.9885 23.9467 65.9885 23.6734V15.5232C65.9885 15.2466 66.2124 15.0226 66.489 15.0226L66.4857 15.0259Z" fill="white"/>
<path d="M74.8499 15.0292H75.2484C75.525 15.0292 75.7456 15.2532 75.7456 15.5265V15.9249C75.7456 16.2015 75.5217 16.4222 75.2484 16.4222H74.8499C74.5766 16.4222 74.3527 16.1983 74.3527 15.9249V15.5265C74.3527 15.2499 74.5766 15.0292 74.8499 15.0292Z" fill="white"/>
<path d="M72.9136 15.0292H73.3121C73.5887 15.0292 73.8093 15.2532 73.8093 15.5265V15.9249C73.8093 16.2015 73.5854 16.4222 73.3121 16.4222H72.9136C72.637 16.4222 72.4164 16.1983 72.4164 15.9249V15.5265C72.4164 15.2499 72.6403 15.0292 72.9136 15.0292Z" fill="white"/>
<path d="M86.5895 24.9905H86.9879C87.2645 24.9905 87.4852 25.2145 87.4852 25.4878V25.8862C87.4852 26.1628 87.2612 26.3835 86.9879 26.3835H86.5895C86.3129 26.3835 86.0922 26.1596 86.0922 25.8862V25.4878C86.0922 25.2112 86.3162 24.9905 86.5895 24.9905Z" fill="white"/>
<path d="M84.6565 24.9905H85.0549C85.3315 24.9905 85.5522 25.2145 85.5522 25.4878V25.8862C85.5522 26.1628 85.3283 26.3835 85.0549 26.3835H84.6565C84.3799 26.3835 84.1592 26.1596 84.1592 25.8862V25.4878C84.1592 25.2112 84.3832 24.9905 84.6565 24.9905Z" fill="white"/>
<path d="M109.878 24.9905H110.276C110.553 24.9905 110.773 25.2145 110.773 25.4878V25.8862C110.773 26.1628 110.549 26.3835 110.276 26.3835H109.878C109.601 26.3835 109.38 26.1596 109.38 25.8862V25.4878C109.38 25.2112 109.604 24.9872 109.881 24.9872L109.878 24.9905Z" fill="white"/>
<path d="M98.2533 23.8512C98.5727 23.6668 98.8328 23.4066 99.0238 23.0839C99.3564 23.4363 99.7252 23.703 100.127 23.8808C100.578 24.0817 101.039 24.1838 101.5 24.1838C102.03 24.1838 102.528 24.0586 102.985 23.8117C103.374 23.6009 103.7 23.3078 103.96 22.9357C104.401 23.7557 105.208 24.1706 106.361 24.1706H115.864C116.128 24.1706 116.355 24.1508 116.533 24.1146C116.72 24.0751 116.872 23.9994 116.984 23.894H117.014V23.8644C117.122 23.7524 117.195 23.6042 117.234 23.4264C117.274 23.2551 117.29 23.0378 117.29 22.781V15.5265C117.29 15.2104 117.109 15.0292 116.793 15.0292H116.585C116.269 15.0292 116.088 15.2104 116.088 15.5265V22.781C116.088 22.9456 116.026 23.0082 115.861 23.0082H113.345C113.289 23.0082 113.144 23.0082 113.052 22.7151C112.973 22.4681 112.891 22.0795 112.802 21.5593C112.663 20.7525 112.459 20.0774 112.193 19.5505C111.923 19.0171 111.554 18.5923 111.103 18.2893C110.704 18.016 110.263 17.8184 109.789 17.6999C109.147 17.5418 108.481 17.4924 107.816 17.5517C107.632 17.5681 107.451 17.5945 107.276 17.6241C106.976 17.6768 106.835 17.8909 106.888 18.207L106.924 18.4046C106.957 18.5626 107.026 18.6779 107.134 18.7437C107.283 18.8359 107.454 18.8063 107.52 18.7898C108.099 18.6812 108.771 18.7009 109.407 18.8425C109.762 18.9216 110.092 19.0632 110.385 19.264C110.701 19.4748 110.958 19.7712 111.149 20.1433C111.343 20.5318 111.501 21.0752 111.62 21.7502C111.659 21.9841 111.699 22.2244 111.741 22.4747C111.771 22.6624 111.811 22.8402 111.86 23.0049H106.361C105.172 23.0049 104.579 22.4319 104.549 21.2629C104.559 21.2069 104.563 21.1476 104.563 21.0851V20.9402C104.563 20.4627 104.49 20.0115 104.352 19.5966V19.5867C104.197 19.1685 103.983 18.803 103.713 18.4968C103.44 18.1872 103.107 17.9468 102.732 17.7756C102.353 17.6044 101.932 17.5155 101.48 17.5155C100.723 17.5155 100.091 17.7525 99.6067 18.2202C99.1325 18.6812 98.7802 19.3398 98.5661 20.1828C98.5101 20.4067 98.464 20.6175 98.4377 20.815C98.4113 21.006 98.3817 21.1937 98.3521 21.3683C98.3257 21.5329 98.2961 21.7009 98.2632 21.8688C98.2335 22.0203 98.1874 22.1685 98.1281 22.3134C98.0326 22.5274 97.8845 22.6986 97.6869 22.8205C97.4827 22.9423 97.239 23.0049 96.9591 23.0049H94.2358L95.8066 21.5593C95.9646 21.4111 96.0404 21.2234 96.0305 21.006C96.0042 20.4824 95.9021 20.0017 95.7243 19.5769C95.5464 19.1488 95.3027 18.7767 94.9998 18.4737C94.6968 18.1708 94.3412 17.9337 93.9329 17.769C93.5278 17.6011 93.08 17.5155 92.6058 17.5155C92.1316 17.5155 91.6969 17.5978 91.2985 17.7624C90.8967 17.9271 90.5378 18.1642 90.2381 18.4704C89.9352 18.7767 89.6915 19.1488 89.5071 19.5769C89.3227 20.0083 89.2173 20.489 89.1942 21.006C89.1843 21.2135 89.2568 21.4012 89.4182 21.5593L90.979 23.0049H88.2557C87.0373 23.0049 86.4446 22.3957 86.4446 21.1443V18.8359C86.4446 18.5198 86.2635 18.3354 85.9473 18.3354H85.7432C85.427 18.3354 85.2459 18.5165 85.2459 18.8359V21.1443C85.2459 22.3957 84.6499 23.0049 83.4216 23.0049H77.4119C77.2472 23.0049 77.1847 22.9423 77.1847 22.7777V17.4595C77.1847 17.1433 77.0035 16.9622 76.6841 16.9622H76.48C76.1638 16.9622 75.9827 17.1433 75.9827 17.4595V17.6142C75.8378 17.5945 75.6962 17.578 75.5546 17.5648C74.7775 17.499 74.0662 17.5648 73.4372 17.7657C72.9597 17.9139 72.5382 18.1378 72.1826 18.4243C71.8237 18.7141 71.5405 19.0829 71.3429 19.511C71.142 19.9424 71.0399 20.4429 71.0399 21.0027C71.0399 21.4341 71.1091 21.8392 71.2474 22.2014C71.3857 22.5636 71.58 22.8765 71.8204 23.13C72.0608 23.3836 72.3538 23.5844 72.6897 23.7228C73.0223 23.8611 73.3878 23.9335 73.7764 23.9335C74.3757 23.9335 74.8861 23.8215 75.2879 23.6042C75.5612 23.4527 75.7983 23.2551 75.9926 23.0148C75.9992 23.1728 76.0189 23.3144 76.0453 23.4297C76.0881 23.6174 76.1671 23.7689 76.2824 23.8841C76.3976 23.9994 76.5557 24.0784 76.7467 24.1146C76.9278 24.1574 77.1451 24.1772 77.4185 24.1772H83.4282C84.044 24.1772 84.5774 24.0652 85.0121 23.8413C85.3809 23.6536 85.6872 23.3869 85.921 23.051C86.3721 23.7985 87.1592 24.1739 88.2623 24.1739H91.743C91.8385 24.1739 91.9241 24.1706 91.9933 24.1607C92.0756 24.1508 92.1546 24.1311 92.2337 24.0982C92.3193 24.0619 92.4016 24.0092 92.4806 23.9335C92.5235 23.894 92.5696 23.8446 92.6157 23.7853C92.7474 23.9467 92.8692 24.0488 92.9845 24.0949C93.1228 24.1508 93.2841 24.1772 93.4817 24.1772H96.9624C97.4597 24.1772 97.8976 24.0685 98.2632 23.8578L98.2533 23.8512ZM99.419 21.9478C99.4684 21.7272 99.5112 21.4868 99.5474 21.2365C99.5804 20.9797 99.6462 20.6833 99.7417 20.3474C99.8965 19.8008 100.114 19.3859 100.39 19.1126C100.657 18.8491 101.023 18.7174 101.474 18.7174C101.757 18.7174 102.02 18.7734 102.251 18.8788C102.485 18.9874 102.682 19.1422 102.847 19.3332L102.86 19.3497C103.018 19.5406 103.14 19.7712 103.226 20.0379C103.315 20.3112 103.361 20.6142 103.361 20.9402C103.361 21.2662 103.308 21.5757 103.206 21.8326C103.104 22.0894 102.966 22.3101 102.794 22.4846C102.623 22.6591 102.422 22.7941 102.195 22.883C101.648 23.0971 101.01 23.051 100.394 22.7546C100.048 22.5867 99.722 22.3166 99.4223 21.9478H99.419ZM94.8286 20.8052L92.5992 22.9094L90.3698 20.8052C90.3995 20.522 90.4719 20.2585 90.5872 20.0181C90.7123 19.7547 90.877 19.5275 91.0778 19.3398C91.2787 19.1521 91.5125 18.9973 91.7694 18.8886C92.2798 18.6713 92.9153 18.6713 93.429 18.8886C93.6859 19.0006 93.923 19.1521 94.1271 19.3398C94.3247 19.5275 94.4861 19.758 94.6145 20.0181C94.7298 20.2618 94.8022 20.5253 94.8319 20.8052H94.8286ZM75.9728 18.7437V20.41C75.9728 20.7656 75.9267 21.0949 75.8345 21.3847C75.7357 21.6811 75.5974 21.9347 75.4229 22.1454C75.2517 22.3496 75.0442 22.5109 74.8038 22.6229C74.5667 22.7349 74.2967 22.7908 74.0036 22.7908C73.4471 22.7908 73.0058 22.6361 72.6963 22.3331C72.3868 22.0302 72.2287 21.5922 72.2287 21.0291C72.2287 20.657 72.2978 20.3211 72.4329 20.028C72.5679 19.7349 72.7589 19.4847 72.996 19.2805C73.2331 19.0763 73.5261 18.9183 73.8653 18.8096C74.2078 18.7009 74.5898 18.6482 74.9915 18.6482C75.3142 18.6482 75.6435 18.6812 75.9695 18.7437H75.9728Z" fill="white"/>
<path d="M119.635 15.0259H119.427C119.153 15.0259 118.93 15.2486 118.93 15.5232V23.6767C118.93 23.9513 119.153 24.1739 119.427 24.1739H119.635C119.909 24.1739 120.132 23.9513 120.132 23.6767V15.5232C120.132 15.2486 119.909 15.0259 119.635 15.0259Z" fill="white"/>
<path d="M2.06471 58.4507C2.72002 58.5726 3.18762 58.7471 3.46424 58.9776C3.74085 59.2048 3.87915 59.5341 3.87915 59.9556C3.87915 60.4068 3.70792 60.7789 3.36215 61.0654C3.01639 61.3519 2.55208 61.4968 1.96921 61.4968C1.26781 61.4968 0.678358 61.3189 0.204166 60.9633C0.069153 60.8711 0 60.7558 0 60.6208C0 60.5056 0.039516 60.4068 0.115255 60.331C0.194287 60.2553 0.286491 60.2191 0.398453 60.2191C0.497243 60.2191 0.589447 60.2553 0.681651 60.3277C1.06693 60.6043 1.5049 60.7427 2.00214 60.7427C2.34132 60.7427 2.60806 60.6735 2.80234 60.5319C2.99334 60.3903 3.09213 60.1993 3.09213 59.9556C3.09213 59.7581 2.99992 59.6 2.81552 59.488C2.64428 59.3859 2.32486 59.2872 1.85396 59.1884C1.24146 59.0731 0.796906 58.8986 0.52688 58.6648C0.253561 58.4343 0.118548 58.1148 0.118548 57.7065C0.118548 57.2488 0.286491 56.8866 0.622377 56.6198C0.964849 56.3465 1.39623 56.2115 1.91982 56.2115C2.60476 56.2115 3.11189 56.3531 3.43789 56.6363C3.52022 56.7186 3.56303 56.8207 3.56303 56.9425C3.56303 57.0446 3.5301 57.1302 3.46094 57.2027C3.39179 57.2718 3.30617 57.3081 3.20409 57.3081C3.12506 57.3081 3.02956 57.2784 2.91101 57.2224C2.59818 57.0479 2.26888 56.959 1.91982 56.959C1.57076 56.959 1.33037 57.0282 1.16243 57.1632C0.994486 57.2982 0.905575 57.4793 0.905575 57.7032C0.905575 57.9008 0.991193 58.0556 1.15914 58.1675C1.32708 58.2762 1.63004 58.3717 2.068 58.454L2.06471 58.4507Z" fill="white"/>
<path d="M7.91638 58.8986V60.7954C7.91638 60.9205 7.87028 61.016 7.77808 61.0786C7.37304 61.3519 6.86921 61.4869 6.26 61.4869C5.7891 61.4869 5.42029 61.3716 5.15685 61.1444C4.89341 60.9172 4.76169 60.611 4.76169 60.2257C4.76169 59.8832 4.88682 59.5967 5.14038 59.3629C5.39394 59.1291 5.75947 59.0138 6.24354 59.0138C6.50698 59.0138 6.81652 59.0567 7.16887 59.139V58.8986C7.16887 58.6516 7.10301 58.4705 6.97458 58.3585C6.84616 58.2466 6.6387 58.1906 6.35879 58.1906C6.1217 58.1906 5.85496 58.2433 5.56189 58.352C5.40712 58.4013 5.27869 58.3948 5.1799 58.3322C5.08111 58.2729 5.03171 58.1807 5.03171 58.0589C5.03171 57.9041 5.11733 57.7856 5.28857 57.6999C5.59152 57.555 5.96363 57.4793 6.4049 57.4793C7.41255 57.4793 7.91638 57.9502 7.91638 58.8953V58.8986ZM6.32586 60.8085C6.70456 60.8085 6.98776 60.7328 7.17216 60.5813V59.7712C6.82969 59.6889 6.53662 59.6461 6.28964 59.6461C6.05584 59.6461 5.87143 59.6955 5.73312 59.791C5.59482 59.8898 5.52566 60.0215 5.52566 60.1927C5.52566 60.6011 5.7924 60.8052 6.32916 60.8052L6.32586 60.8085Z" fill="white"/>
<path d="M9.00305 59.9326V57.9403C9.00305 57.8251 9.03598 57.7263 9.10513 57.6472C9.17428 57.5682 9.26649 57.532 9.38174 57.532C9.497 57.532 9.58591 57.5715 9.66165 57.6472C9.73739 57.7263 9.77361 57.8218 9.77361 57.9403V59.926C9.77361 60.1796 9.84935 60.3771 10.0008 60.5253C10.1523 60.6702 10.3598 60.7459 10.6199 60.7459C10.936 60.7459 11.2258 60.6669 11.4893 60.5056V57.937C11.4893 57.8251 11.5255 57.7296 11.6012 57.6538C11.677 57.5748 11.7692 57.5386 11.8745 57.5386C11.9799 57.5386 12.0721 57.5781 12.1479 57.6538C12.2236 57.7329 12.2598 57.8251 12.2598 57.937V60.7624C12.2598 60.8908 12.2104 60.9863 12.1149 61.0555C11.6967 61.3486 11.1962 61.4935 10.6133 61.4935C10.1128 61.4935 9.71763 61.3584 9.43114 61.0851C9.14465 60.8118 8.99976 60.4298 8.99976 59.9392L9.00305 59.9326Z" fill="white"/>
<path d="M13.3828 58.948C13.4223 58.4804 13.577 58.1214 13.8471 57.8646C14.1171 57.6077 14.4826 57.4826 14.9436 57.4826C15.2598 57.4826 15.5792 57.5517 15.8986 57.6933V56.6001C15.8986 56.4947 15.9348 56.3992 16.0106 56.3234C16.0863 56.2444 16.1752 56.2082 16.2839 56.2082C16.3926 56.2082 16.4815 56.2444 16.5572 56.3202C16.633 56.3959 16.6692 56.4881 16.6692 56.6001V60.7459C16.6692 60.8777 16.6231 60.9732 16.5309 61.039C16.3991 61.1378 16.1917 61.2366 15.9118 61.3453C15.6352 61.4441 15.3454 61.4902 15.0424 61.4902C14.5649 61.4902 14.1797 61.3551 13.8833 61.0851C13.5869 60.8151 13.419 60.4496 13.3795 59.9853C13.3498 59.6461 13.3498 59.3003 13.3795 58.948H13.3828ZM14.1566 59.8898C14.1994 60.4595 14.5024 60.7427 15.0622 60.7427C15.2038 60.7427 15.3586 60.7163 15.5232 60.6636C15.6879 60.6109 15.8163 60.5484 15.9019 60.4825V58.454C15.6648 58.3025 15.3651 58.2268 15.0029 58.2268C14.4694 58.2268 14.1863 58.4968 14.1566 59.0369C14.1369 59.3563 14.1369 59.6428 14.1566 59.8898Z" fill="white"/>
<path d="M18.2729 57.0282C18.1444 57.0282 18.0424 56.9853 17.96 56.8964C17.8777 56.8108 17.8349 56.7054 17.8349 56.5836C17.8349 56.4618 17.8777 56.3597 17.96 56.2774C18.0424 56.195 18.1477 56.1522 18.2729 56.1522C18.398 56.1522 18.4968 56.195 18.5791 56.2774C18.6614 56.3597 18.7043 56.4618 18.7043 56.5836C18.7043 56.7054 18.6614 56.8108 18.5791 56.8964C18.4968 56.9853 18.3947 57.0282 18.2729 57.0282ZM18.6582 57.9271V61.0489C18.6582 61.1609 18.6219 61.2531 18.5462 61.3288C18.4704 61.4046 18.3782 61.4408 18.2729 61.4408C18.1675 61.4408 18.0819 61.4013 18.0028 61.3222C17.9238 61.2432 17.8876 61.151 17.8876 61.0456V57.9239C17.8876 57.8119 17.9238 57.7197 17.9995 57.644C18.0753 57.5682 18.1642 57.532 18.2729 57.532C18.3815 57.532 18.4704 57.5715 18.5462 57.6472C18.6219 57.7263 18.6582 57.8185 18.6582 57.9239V57.9271Z" fill="white"/>
<path d="M23.7887 58.4507C24.444 58.5726 24.9116 58.7471 25.1915 58.9776C25.4681 59.2048 25.6064 59.5341 25.6064 59.9556C25.6064 60.4068 25.4319 60.7789 25.0894 61.0654C24.7436 61.3519 24.2793 61.4968 23.6964 61.4968C22.995 61.4968 22.4056 61.3189 21.9314 60.9633C21.7964 60.8711 21.7272 60.7558 21.7272 60.6208C21.7272 60.5056 21.7667 60.4068 21.8425 60.331C21.9215 60.2553 22.017 60.2191 22.1257 60.2191C22.2245 60.2191 22.3167 60.2553 22.4089 60.3277C22.7942 60.6043 23.2321 60.7427 23.7294 60.7427C24.0686 60.7427 24.3353 60.6735 24.5296 60.5319C24.7206 60.3903 24.8161 60.1993 24.8161 59.9556C24.8161 59.7581 24.7239 59.6 24.5395 59.488C24.3682 59.3859 24.0488 59.2872 23.5779 59.1884C22.9654 59.0731 22.5208 58.8986 22.2508 58.6648C21.9775 58.4343 21.8425 58.1148 21.8425 57.7065C21.8425 57.2488 22.0104 56.8866 22.3463 56.6198C22.6855 56.3465 23.1202 56.2115 23.6438 56.2115C24.3287 56.2115 24.8358 56.3531 25.1618 56.6363C25.2442 56.7186 25.287 56.8207 25.287 56.9425C25.287 57.0446 25.254 57.1302 25.1849 57.2027C25.1157 57.2751 25.0334 57.3081 24.928 57.3081C24.849 57.3081 24.7535 57.2784 24.6382 57.2224C24.3254 57.0479 23.9961 56.959 23.6471 56.959C23.298 56.959 23.0576 57.0282 22.8897 57.1632C22.7184 57.2982 22.6328 57.4793 22.6328 57.7032C22.6328 57.9008 22.7151 58.0556 22.8831 58.1675C23.051 58.2762 23.354 58.3717 23.7919 58.454L23.7887 58.4507Z" fill="white"/>
<path d="M28.1387 57.4826C28.5997 57.4826 28.9916 57.6176 29.3077 57.8909C29.6238 58.1643 29.7951 58.5166 29.8247 58.948C29.8478 59.2938 29.8478 59.6428 29.8247 59.9919C29.7951 60.42 29.6238 60.7789 29.3077 61.0654C28.9949 61.3486 28.6063 61.4869 28.1387 61.4869C27.6711 61.4869 27.2891 61.3453 26.9796 61.0654C26.6634 60.7822 26.4889 60.4265 26.4527 59.9919C26.4296 59.6428 26.4296 59.2938 26.4527 58.948C26.4922 58.5067 26.6634 58.1544 26.9697 57.8909C27.2858 57.6176 27.6744 57.4826 28.1387 57.4826ZM28.7841 58.4507C28.6162 58.2993 28.4021 58.2235 28.1387 58.2235C27.8753 58.2235 27.6645 58.2993 27.4999 58.4507C27.3352 58.6022 27.2463 58.7998 27.2265 59.0501C27.2035 59.3958 27.2035 59.679 27.2265 59.8964C27.2496 60.1598 27.3418 60.3673 27.5031 60.5155C27.6645 60.6669 27.8753 60.7427 28.1387 60.7427C28.4021 60.7427 28.6162 60.6669 28.7775 60.5155C28.9389 60.364 29.0344 60.1565 29.0574 59.8964C29.0706 59.712 29.0706 59.4288 29.0574 59.0501C29.0443 58.8031 28.9521 58.6022 28.7841 58.4507Z" fill="white"/>
<path d="M32.4064 60.7427C32.8049 60.7427 33.0848 60.5681 33.2461 60.2158C33.3186 60.0742 33.4305 60.005 33.582 60.005C33.6874 60.005 33.7763 60.0413 33.8455 60.117C33.9146 60.1927 33.9475 60.2849 33.9475 60.3969C33.9475 60.6241 33.8027 60.8645 33.5162 61.1115C33.233 61.3585 32.8609 61.4836 32.3932 61.4836C31.9256 61.4836 31.5437 61.3387 31.2242 61.0522C30.918 60.769 30.7435 60.4134 30.7072 59.9787C30.6875 59.6296 30.6875 59.2839 30.7072 58.9414C30.7369 58.5034 30.9048 58.1511 31.2176 57.8843C31.5338 57.611 31.9256 57.476 32.3932 57.476C32.8609 57.476 33.233 57.6011 33.5096 57.8481C33.7928 58.0951 33.9311 58.3355 33.9311 58.5627C33.9311 58.6747 33.8982 58.7669 33.829 58.8426C33.7598 58.9183 33.6742 58.9546 33.5656 58.9546C33.4141 58.9546 33.3054 58.8854 33.2363 58.7438C33.0749 58.3948 32.7983 58.2169 32.4031 58.2169C32.1298 58.2169 31.9158 58.2861 31.7544 58.4277C31.593 58.5693 31.5008 58.7669 31.4778 59.0171C31.4547 59.3366 31.4547 59.6263 31.4778 59.8865C31.5008 60.1433 31.593 60.3508 31.7544 60.5023C31.9158 60.6538 32.1298 60.7328 32.4031 60.7328L32.4064 60.7427Z" fill="white"/>
<path d="M35.3042 57.0282C35.1758 57.0282 35.0737 56.9853 34.9914 56.8964C34.9091 56.8108 34.8663 56.7054 34.8663 56.5836C34.8663 56.4618 34.9091 56.3597 34.9914 56.2774C35.0737 56.195 35.1791 56.1522 35.3042 56.1522C35.4294 56.1522 35.5282 56.195 35.6105 56.2774C35.6928 56.3597 35.7356 56.4618 35.7356 56.5836C35.7356 56.7054 35.6928 56.8108 35.6105 56.8964C35.5282 56.9853 35.4261 57.0282 35.3042 57.0282ZM35.6895 57.9271V61.0489C35.6895 61.1609 35.6533 61.2531 35.5776 61.3288C35.5018 61.4046 35.4096 61.4408 35.3042 61.4408C35.1989 61.4408 35.1132 61.4013 35.0342 61.3222C34.9552 61.2432 34.919 61.151 34.919 61.0456V57.9239C34.919 57.8119 34.9552 57.7197 35.0309 57.644C35.1067 57.5682 35.1956 57.532 35.3042 57.532C35.4129 57.532 35.5018 57.5715 35.5776 57.6472C35.6533 57.7263 35.6895 57.8185 35.6895 57.9239V57.9271Z" fill="white"/>
<path d="M40.1186 59.1159V59.3201C40.1186 59.6329 39.9638 59.7877 39.651 59.7877H37.5863V59.8766C37.5863 60.1631 37.6719 60.387 37.8464 60.5451C38.021 60.7032 38.2548 60.7822 38.5511 60.7822C38.7784 60.7822 39.0583 60.7229 39.3909 60.6077C39.5358 60.5484 39.6609 60.555 39.763 60.6208C39.8651 60.69 39.9144 60.7822 39.9144 60.904C39.9144 61.039 39.8486 61.151 39.7169 61.2333C39.4337 61.4046 39.0418 61.4869 38.5347 61.4869C38.0276 61.4869 37.6423 61.342 37.3294 61.0555C37.0265 60.7591 36.8618 60.3804 36.8322 59.9161C36.8091 59.6428 36.8091 59.3431 36.8322 59.0106C36.8717 58.5429 37.0397 58.1708 37.3426 57.8942C37.6489 57.6176 38.0341 57.4793 38.4952 57.4793C38.9562 57.4793 39.3678 57.6308 39.6708 57.9304C39.9671 58.2268 40.1153 58.622 40.1153 59.1126L40.1186 59.1159ZM37.5863 59.1752H39.2789C39.3316 59.1752 39.3612 59.1456 39.3678 59.0896C39.3876 58.8163 39.3184 58.5956 39.1604 58.4244C39.0023 58.2532 38.7817 58.1675 38.4985 58.1675C38.1955 58.1675 37.9683 58.2565 37.8102 58.4343C37.6522 58.6121 37.5764 58.8591 37.5863 59.1752Z" fill="white"/>
<path d="M43.0823 61.3485C42.8782 61.4407 42.6048 61.4868 42.2657 61.4868C41.8771 61.4868 41.5774 61.3683 41.3667 61.1345C41.1592 60.8974 41.0538 60.578 41.0538 60.1762V57.1269C41.0538 57.015 41.0901 56.9228 41.1658 56.847C41.2415 56.7713 41.3304 56.735 41.4391 56.735C41.5478 56.735 41.6367 56.7746 41.7124 56.8503C41.7882 56.9293 41.8244 57.0215 41.8244 57.1269V57.6801H42.8321C42.9341 57.6801 43.0198 57.7131 43.0922 57.7789C43.1614 57.8448 43.1976 57.9271 43.1976 58.0226C43.1976 58.1181 43.1614 58.2004 43.0922 58.2663C43.023 58.3322 42.9341 58.3651 42.8321 58.3651H41.8244V60.1828C41.8244 60.5681 41.9956 60.7591 42.3414 60.7591C42.4204 60.7591 42.595 60.7229 42.8683 60.6504C43.0033 60.6175 43.1185 60.634 43.2075 60.7064C43.2964 60.7789 43.3425 60.8743 43.3425 60.9962C43.3425 61.1608 43.2569 61.2794 43.079 61.3551L43.0823 61.3485Z" fill="white"/>
<path d="M45.315 61.151L43.9879 58.0918C43.9286 57.9502 43.9385 57.8218 44.0175 57.7065C44.0999 57.588 44.2085 57.532 44.337 57.532C44.5345 57.532 44.6663 57.6308 44.7321 57.8251L45.7167 60.1828C45.7167 60.1828 45.7365 60.2059 45.7464 60.2059C45.7661 60.2059 45.7793 60.1993 45.7826 60.1828L46.6882 57.8415C46.7606 57.6374 46.8923 57.5353 47.0833 57.5353C47.2282 57.5353 47.3402 57.5945 47.4192 57.7131C47.4982 57.8316 47.5081 57.9601 47.4488 58.0951L46.0757 61.3584C45.9439 61.6746 45.7892 61.9545 45.6081 62.2015C45.4269 62.4484 45.2524 62.623 45.0812 62.7316C44.9692 62.8041 44.8605 62.8403 44.7519 62.8403C44.6432 62.8403 44.5642 62.8074 44.4917 62.7382C44.4226 62.6691 44.3864 62.5834 44.3864 62.4748C44.3864 62.3398 44.439 62.2344 44.5477 62.1619C44.877 61.9578 45.1339 61.6219 45.315 61.1543V61.151Z" fill="white"/>
<path d="M51.7725 57.4826C52.2336 57.4826 52.6221 57.6176 52.9416 57.8909C53.2577 58.1643 53.4289 58.5166 53.4586 58.948C53.4816 59.2938 53.4816 59.6428 53.4586 59.9919C53.4289 60.42 53.2577 60.7789 52.9416 61.0654C52.6287 61.3486 52.2402 61.4869 51.7725 61.4869C51.3049 61.4869 50.923 61.3453 50.6134 61.0654C50.2973 60.7822 50.1228 60.4265 50.0865 59.9919C50.0635 59.6428 50.0635 59.2938 50.0865 58.948C50.126 58.5067 50.2973 58.1544 50.6035 57.8909C50.9197 57.6176 51.3082 57.4826 51.7725 57.4826ZM52.418 58.4507C52.25 58.2993 52.036 58.2235 51.7725 58.2235C51.5091 58.2235 51.2951 58.2993 51.1337 58.4507C50.9723 58.6022 50.8801 58.7998 50.8604 59.0501C50.8373 59.3958 50.8373 59.679 50.8604 59.8964C50.8834 60.1598 50.9756 60.3673 51.137 60.5155C51.2984 60.6669 51.5091 60.7427 51.7725 60.7427C52.036 60.7427 52.2467 60.6669 52.4114 60.5155C52.5727 60.364 52.6682 60.1565 52.6913 59.8964C52.7045 59.712 52.7045 59.4288 52.6913 59.0501C52.6781 58.8031 52.5859 58.6022 52.418 58.4507Z" fill="white"/>
<path d="M54.486 57.6802H54.7033V57.4101C54.7033 57.0117 54.8087 56.7021 55.0227 56.4782C55.2368 56.2576 55.5365 56.1456 55.9217 56.1456C56.1885 56.1456 56.419 56.172 56.6067 56.2247C56.8075 56.2839 56.9063 56.4058 56.9063 56.5902C56.9063 56.6824 56.8734 56.7647 56.8075 56.8306C56.7417 56.8997 56.6528 56.9327 56.5408 56.9327C56.4782 56.9327 56.3893 56.9228 56.2774 56.903C56.1424 56.88 56.0403 56.8668 55.9711 56.8668C55.6418 56.8668 55.4739 57.0578 55.4739 57.4431V57.6769H56.4091C56.5112 57.6769 56.5968 57.7098 56.6692 57.7757C56.7384 57.8415 56.7746 57.9239 56.7746 58.0193C56.7746 58.1148 56.7384 58.1972 56.6692 58.263C56.6001 58.3289 56.5112 58.3618 56.4091 58.3618H55.4739V61.039C55.4739 61.151 55.4377 61.2465 55.3619 61.3222C55.2862 61.4013 55.1973 61.4408 55.0886 61.4408C54.9799 61.4408 54.891 61.4013 54.8153 61.3222C54.7395 61.2432 54.7033 61.151 54.7033 61.039V58.3618H54.486C54.3872 58.3618 54.3049 58.3289 54.2324 58.263C54.1633 58.1972 54.127 58.1181 54.127 58.0259C54.127 57.9239 54.16 57.8382 54.2291 57.7724C54.2983 57.7065 54.3806 57.6736 54.486 57.6736V57.6802Z" fill="white"/>
<path d="M59.6461 61.0423V56.8767C59.6461 56.7021 59.7021 56.5605 59.8108 56.4486C59.9194 56.3366 60.0676 56.2839 60.252 56.2839H62.6691C62.7811 56.2839 62.8765 56.3202 62.9556 56.3926C63.0346 56.4651 63.0774 56.554 63.0774 56.6626C63.0774 56.7713 63.0379 56.8635 62.9556 56.9392C62.8765 57.0183 62.7811 57.0578 62.6691 57.0578H60.4364V58.5759H62.5604C62.6658 58.5759 62.758 58.6121 62.8337 58.6878C62.9095 58.7636 62.9457 58.8558 62.9457 58.9611C62.9457 59.0665 62.9062 59.1521 62.8304 59.2279C62.7514 59.3036 62.6625 59.3398 62.5604 59.3398H60.4364V61.039C60.4364 61.151 60.3969 61.2465 60.3212 61.3222C60.2454 61.398 60.1467 61.4408 60.038 61.4408C59.9293 61.4408 59.8404 61.4013 59.7647 61.3189C59.6889 61.2399 59.6527 61.1444 59.6527 61.039L59.6461 61.0423Z" fill="white"/>
<path d="M66.8644 58.8986V60.7954C66.8644 60.9205 66.8183 61.016 66.7261 61.0786C66.321 61.3519 65.8172 61.4869 65.208 61.4869C64.7371 61.4869 64.3683 61.3716 64.1048 61.1444C63.8414 60.9172 63.7097 60.611 63.7097 60.2257C63.7097 59.8832 63.8348 59.5967 64.0884 59.3629C64.3419 59.1291 64.7075 59.0138 65.1915 59.0138C65.455 59.0138 65.7645 59.0567 66.1169 59.139V58.8986C66.1169 58.6516 66.051 58.4705 65.9226 58.3585C65.7942 58.2466 65.5867 58.1906 65.3068 58.1906C65.0697 58.1906 64.803 58.2433 64.5132 58.352C64.3584 58.4013 64.23 58.3948 64.1312 58.3322C64.0324 58.2729 63.983 58.1807 63.983 58.0589C63.983 57.9041 64.0686 57.7856 64.2399 57.6999C64.5395 57.555 64.9116 57.4793 65.3562 57.4793C66.3638 57.4793 66.8677 57.9502 66.8677 58.8953L66.8644 58.8986ZM65.2739 60.8085C65.6526 60.8085 65.9358 60.7328 66.1202 60.5813V59.7712C65.781 59.6889 65.4846 59.6461 65.2376 59.6461C65.0038 59.6461 64.8194 59.6955 64.6778 59.791C64.5395 59.8898 64.4704 60.0215 64.4704 60.1927C64.4704 60.6011 64.7371 60.8052 65.2739 60.8052V60.8085Z" fill="white"/>
<path d="M73.1836 59.0204V61.0489C73.1836 61.1609 73.1474 61.2531 73.0717 61.3288C72.9959 61.4046 72.9037 61.4408 72.7984 61.4408C72.693 61.4408 72.6008 61.4013 72.525 61.3222C72.4493 61.2432 72.4131 61.151 72.4131 61.0456V59.0599C72.4131 58.5001 72.1727 58.2202 71.6919 58.2202C71.3857 58.2202 71.1486 58.3256 70.9773 58.5396V61.0423C70.9773 61.1543 70.9411 61.2465 70.8687 61.3222C70.7962 61.398 70.704 61.4342 70.5921 61.4342C70.49 61.4342 70.4011 61.3947 70.322 61.3156C70.243 61.2366 70.2068 61.1444 70.2068 61.039V59.004C70.2068 58.4771 69.9697 58.2169 69.4922 58.2169C69.2716 58.2169 69.041 58.2762 68.7974 58.398L68.7743 58.4211V61.039C68.7743 61.151 68.7381 61.2432 68.6624 61.3189C68.5866 61.3947 68.4977 61.4309 68.389 61.4309C68.2804 61.4309 68.198 61.3914 68.119 61.3124C68.04 61.2333 68.0038 61.1411 68.0038 61.0357V58.184C68.0038 58.0687 68.0597 57.9601 68.1717 57.8646C68.5306 57.6011 68.962 57.4694 69.4626 57.4694C69.9631 57.4694 70.322 57.6143 70.5657 57.9008C70.9345 57.6143 71.3231 57.4694 71.7248 57.4694C72.7029 57.4694 73.1902 57.9831 73.1902 59.0105L73.1836 59.0204Z" fill="white"/>
<path d="M74.7511 57.0282C74.6227 57.0282 74.5206 56.9853 74.4383 56.8964C74.356 56.8108 74.3131 56.7054 74.3131 56.5836C74.3131 56.4618 74.356 56.3597 74.4383 56.2774C74.5206 56.195 74.626 56.1522 74.7511 56.1522C74.8762 56.1522 74.975 56.195 75.0574 56.2774C75.1397 56.3597 75.1825 56.4618 75.1825 56.5836C75.1825 56.7054 75.1397 56.8108 75.0574 56.8964C74.975 56.9853 74.873 57.0282 74.7511 57.0282ZM75.1397 57.9271V61.0489C75.1397 61.1609 75.1035 61.2531 75.0277 61.3288C74.952 61.4046 74.8598 61.4408 74.7544 61.4408C74.649 61.4408 74.5634 61.4013 74.4844 61.3222C74.4053 61.2432 74.3691 61.151 74.3691 61.0456V57.9239C74.3691 57.8119 74.4053 57.7197 74.4811 57.644C74.5568 57.5682 74.6457 57.532 74.7544 57.532C74.8631 57.532 74.952 57.5715 75.0277 57.6472C75.1035 57.7263 75.1397 57.8185 75.1397 57.9239V57.9271Z" fill="white"/>
<path d="M77.1517 56.6066V61.0489C77.1517 61.1609 77.1155 61.2531 77.043 61.3288C76.9706 61.4046 76.8784 61.4408 76.7664 61.4408C76.6643 61.4408 76.5754 61.4013 76.4964 61.3222C76.4174 61.2432 76.3811 61.151 76.3811 61.0456V56.6034C76.3811 56.4914 76.4174 56.3992 76.4931 56.3234C76.5688 56.2477 76.661 56.2115 76.7664 56.2115C76.8718 56.2115 76.964 56.251 77.0397 56.3267C77.1155 56.4058 77.1517 56.498 77.1517 56.6034V56.6066Z" fill="white"/>
<path d="M79.3482 61.151L78.0211 58.0918C77.9618 57.9502 77.9717 57.8218 78.0507 57.7065C78.133 57.588 78.2417 57.532 78.3701 57.532C78.571 57.532 78.7027 57.6308 78.7653 57.8251L79.7499 60.1828C79.7499 60.1828 79.7697 60.2059 79.7795 60.2059C79.7993 60.2059 79.8125 60.1993 79.8158 60.1828L80.7213 57.8415C80.7938 57.6374 80.9255 57.5353 81.1165 57.5353C81.2614 57.5353 81.3734 57.5945 81.4524 57.7131C81.5314 57.8316 81.538 57.9601 81.482 58.0951L80.1088 61.3584C79.9771 61.6746 79.8224 61.9545 79.6412 62.2015C79.4601 62.4484 79.2856 62.623 79.1144 62.7316C79.0024 62.8041 78.8937 62.8403 78.7851 62.8403C78.6764 62.8403 78.5974 62.8074 78.5249 62.7382C78.4558 62.6691 78.4195 62.5834 78.4195 62.4748C78.4195 62.3398 78.4722 62.2344 78.5809 62.1619C78.9102 61.9578 79.167 61.6219 79.3482 61.1543V61.151Z" fill="white"/>
<path d="M87.1624 58.8986V60.7954C87.1624 60.9205 87.1163 61.016 87.0241 61.0786C86.6191 61.3519 86.1153 61.4869 85.5061 61.4869C85.0352 61.4869 84.6664 61.3716 84.4029 61.1444C84.1395 60.9172 84.0078 60.611 84.0078 60.2257C84.0078 59.8832 84.1329 59.5967 84.3864 59.3629C84.64 59.1291 85.0055 59.0138 85.4896 59.0138C85.753 59.0138 86.0626 59.0567 86.4149 59.139V58.8986C86.4149 58.6516 86.3491 58.4705 86.2206 58.3585C86.0922 58.2466 85.8848 58.1906 85.6049 58.1906C85.3678 58.1906 85.101 58.2433 84.808 58.352C84.6532 58.4013 84.5248 58.3948 84.426 58.3322C84.3272 58.2696 84.2778 58.1807 84.2778 58.0589C84.2778 57.9041 84.3634 57.7856 84.5346 57.6999C84.8376 57.555 85.2097 57.4793 85.651 57.4793C86.6586 57.4793 87.1624 57.9502 87.1624 58.8953V58.8986ZM85.5719 60.8085C85.9506 60.8085 86.2338 60.7328 86.4182 60.5813V59.7712C86.0758 59.6889 85.7827 59.6461 85.5357 59.6461C85.3019 59.6461 85.1175 59.6955 84.9792 59.791C84.8409 59.8898 84.7717 60.0215 84.7717 60.1927C84.7717 60.6011 85.0385 60.8052 85.5752 60.8052L85.5719 60.8085Z" fill="white"/>
<path d="M91.5553 59.0204V61.0489C91.5553 61.1609 91.5191 61.2531 91.4466 61.3288C91.3742 61.4046 91.282 61.4408 91.17 61.4408C91.0679 61.4408 90.979 61.4013 90.9 61.3222C90.821 61.2432 90.7814 61.151 90.7814 61.0456V59.0534C90.7814 58.7866 90.7024 58.5792 90.5476 58.4376C90.3929 58.2927 90.1887 58.2235 89.9351 58.2235C89.5795 58.2235 89.2897 58.2927 89.0658 58.4277V61.0456C89.0658 61.1576 89.0263 61.2498 88.9538 61.3255C88.8781 61.4013 88.7859 61.4375 88.6805 61.4375C88.5751 61.4375 88.4895 61.398 88.4105 61.3189C88.3315 61.2399 88.2952 61.1477 88.2952 61.0423V58.1741C88.2952 58.0424 88.3446 57.9436 88.4467 57.8745C88.5916 57.7625 88.7991 57.667 89.0658 57.5913C89.3325 57.5122 89.6289 57.476 89.9549 57.476C90.4752 57.476 90.8704 57.6077 91.1437 57.8712C91.417 58.1346 91.552 58.5166 91.552 59.0171L91.5553 59.0204Z" fill="white"/>
<path d="M92.6288 58.948C92.6683 58.4804 92.8231 58.1214 93.0931 57.8646C93.3631 57.6077 93.7287 57.4826 94.1897 57.4826C94.5058 57.4826 94.8252 57.5517 95.1446 57.6933V56.6001C95.1446 56.4947 95.1809 56.3992 95.2566 56.3234C95.3323 56.2444 95.4213 56.2082 95.5299 56.2082C95.6386 56.2082 95.7275 56.2444 95.8032 56.3202C95.879 56.3959 95.9152 56.4881 95.9152 56.6001V60.7459C95.9152 60.8777 95.8691 60.9732 95.7769 61.039C95.6452 61.1378 95.4377 61.2366 95.1578 61.3453C94.8812 61.4441 94.5914 61.4902 94.2885 61.4902C93.811 61.4902 93.4257 61.3551 93.1293 61.0851C92.833 60.8151 92.665 60.4496 92.6255 59.9853C92.5959 59.6461 92.5959 59.3003 92.6255 58.948H92.6288ZM93.4027 59.8898C93.4455 60.4595 93.7484 60.7427 94.3082 60.7427C94.4498 60.7427 94.6046 60.7163 94.7692 60.6636C94.9339 60.6109 95.0623 60.5484 95.1479 60.4825V58.454C94.9108 58.3025 94.6112 58.2268 94.2489 58.2268C93.7155 58.2268 93.4323 58.4968 93.4027 59.0369C93.3829 59.3563 93.3829 59.6428 93.4027 59.8898Z" fill="white"/>
<path d="M101.187 60.7427C101.451 60.7427 101.688 60.6735 101.899 60.5352C102.109 60.3969 102.271 60.2092 102.376 59.9787C102.465 59.8239 102.584 59.7449 102.735 59.7449C102.827 59.7449 102.913 59.7811 102.995 59.8535C103.074 59.926 103.117 60.0116 103.117 60.1071C103.117 60.1697 103.104 60.2355 103.074 60.3047C102.929 60.6702 102.682 60.96 102.337 61.174C101.991 61.3881 101.612 61.4935 101.197 61.4935C100.608 61.4935 100.114 61.2992 99.7154 60.9106C99.3268 60.522 99.1094 60.0314 99.0666 59.4353C99.0337 59.0402 99.0337 58.6516 99.0666 58.2663C99.1094 57.6769 99.3268 57.1895 99.7154 56.8009C100.111 56.4058 100.601 56.2082 101.191 56.2082C101.609 56.2082 101.991 56.3136 102.337 56.5276C102.682 56.7417 102.926 57.0314 103.074 57.397C103.104 57.4562 103.117 57.5221 103.117 57.5945C103.117 57.6933 103.078 57.7757 102.995 57.8514C102.913 57.9271 102.827 57.9601 102.735 57.9601C102.584 57.9601 102.465 57.881 102.376 57.7263C102.271 57.4892 102.109 57.2982 101.899 57.1599C101.688 57.0216 101.451 56.9524 101.187 56.9524C100.802 56.9524 100.492 57.0841 100.252 57.3476C100.018 57.5945 99.8833 57.9271 99.8438 58.3388C99.8207 58.6845 99.8207 59.0303 99.8438 59.3761C99.8767 59.791 100.015 60.1203 100.255 60.3673C100.496 60.6142 100.805 60.7394 101.187 60.7394V60.7427Z" fill="white"/>
<path d="M105.59 57.4826C106.051 57.4826 106.443 57.6176 106.759 57.8909C107.075 58.1643 107.246 58.5166 107.276 58.948C107.299 59.2938 107.299 59.6428 107.276 59.9919C107.246 60.42 107.075 60.7789 106.759 61.0654C106.446 61.3486 106.058 61.4869 105.59 61.4869C105.122 61.4869 104.74 61.3453 104.431 61.0654C104.115 60.7822 103.94 60.4265 103.904 59.9919C103.881 59.6428 103.881 59.2938 103.904 58.948C103.944 58.5067 104.115 58.1544 104.421 57.8909C104.737 57.6176 105.126 57.4826 105.59 57.4826ZM106.236 58.4507C106.068 58.2993 105.854 58.2235 105.59 58.2235C105.327 58.2235 105.116 58.2993 104.951 58.4507C104.787 58.6022 104.698 58.7998 104.678 59.0501C104.655 59.3958 104.655 59.679 104.678 59.8964C104.701 60.1598 104.793 60.3673 104.955 60.5155C105.116 60.6669 105.327 60.7427 105.59 60.7427C105.854 60.7427 106.068 60.6669 106.229 60.5155C106.39 60.364 106.486 60.1565 106.509 59.8964C106.522 59.712 106.522 59.4288 106.509 59.0501C106.496 58.8031 106.403 58.6022 106.236 58.4507Z" fill="white"/>
<path d="M113.506 59.0204V61.0489C113.506 61.1609 113.47 61.2531 113.394 61.3288C113.319 61.4046 113.227 61.4408 113.121 61.4408C113.016 61.4408 112.924 61.4013 112.848 61.3222C112.772 61.2432 112.736 61.151 112.736 61.0456V59.0599C112.736 58.5001 112.495 58.2202 112.015 58.2202C111.708 58.2202 111.471 58.3256 111.3 58.5396V61.0423C111.3 61.1543 111.264 61.2465 111.191 61.3222C111.119 61.398 111.027 61.4342 110.915 61.4342C110.813 61.4342 110.724 61.3947 110.645 61.3156C110.566 61.2366 110.53 61.1444 110.53 61.039V59.004C110.53 58.4771 110.292 58.2169 109.815 58.2169C109.594 58.2169 109.364 58.2762 109.12 58.398L109.097 58.4211V61.039C109.097 61.151 109.061 61.2432 108.985 61.3189C108.909 61.3947 108.82 61.4309 108.712 61.4309C108.603 61.4309 108.521 61.3914 108.442 61.3124C108.363 61.2333 108.327 61.1411 108.327 61.0357V58.184C108.327 58.0687 108.383 57.9601 108.494 57.8646C108.853 57.6011 109.285 57.4694 109.785 57.4694C110.286 57.4694 110.645 57.6143 110.888 57.9008C111.257 57.6143 111.646 57.4694 112.048 57.4694C113.026 57.4694 113.513 57.9831 113.513 59.0105L113.506 59.0204Z" fill="white"/>
<path d="M119.832 59.0204V61.0489C119.832 61.1609 119.796 61.2531 119.72 61.3288C119.645 61.4046 119.552 61.4408 119.447 61.4408C119.342 61.4408 119.249 61.4013 119.174 61.3222C119.098 61.2432 119.062 61.151 119.062 61.0456V59.0599C119.062 58.5001 118.821 58.2202 118.341 58.2202C118.034 58.2202 117.797 58.3256 117.626 58.5396V61.0423C117.626 61.1543 117.59 61.2465 117.517 61.3222C117.445 61.398 117.353 61.4342 117.241 61.4342C117.139 61.4342 117.05 61.3947 116.971 61.3156C116.892 61.2366 116.855 61.1444 116.855 61.039V59.004C116.855 58.4771 116.618 58.2169 116.141 58.2169C115.92 58.2169 115.69 58.2762 115.446 58.398L115.423 58.4211V61.039C115.423 61.151 115.387 61.2432 115.311 61.3189C115.235 61.3947 115.146 61.4309 115.038 61.4309C114.929 61.4309 114.847 61.3914 114.768 61.3124C114.689 61.2333 114.652 61.1411 114.652 61.0357V58.184C114.652 58.0687 114.708 57.9601 114.82 57.8646C115.179 57.6011 115.611 57.4694 116.111 57.4694C116.612 57.4694 116.971 57.6143 117.214 57.9008C117.583 57.6143 117.972 57.4694 118.373 57.4694C119.352 57.4694 119.839 57.9831 119.839 59.0105L119.832 59.0204Z" fill="white"/>
<path d="M120.929 59.9326V57.9403C120.929 57.8251 120.962 57.7263 121.031 57.6472C121.1 57.5682 121.192 57.532 121.308 57.532C121.423 57.532 121.512 57.5715 121.587 57.6472C121.663 57.7263 121.699 57.8218 121.699 57.9403V59.926C121.699 60.1796 121.775 60.3771 121.927 60.5253C122.078 60.6702 122.286 60.7459 122.546 60.7459C122.862 60.7459 123.152 60.6669 123.415 60.5056V57.937C123.415 57.8251 123.451 57.7296 123.527 57.6538C123.603 57.5748 123.692 57.5386 123.8 57.5386C123.909 57.5386 123.998 57.5781 124.074 57.6538C124.149 57.7329 124.186 57.8251 124.186 57.937V60.7624C124.186 60.8908 124.136 60.9863 124.041 61.0555C123.623 61.3486 123.122 61.4935 122.539 61.4935C122.039 61.4935 121.643 61.3584 121.357 61.0851C121.07 60.8118 120.926 60.4298 120.926 59.9392L120.929 59.9326Z" fill="white"/>
<path d="M128.634 59.0204V61.0489C128.634 61.1609 128.598 61.2531 128.526 61.3288C128.453 61.4046 128.361 61.4408 128.249 61.4408C128.147 61.4408 128.058 61.4013 127.979 61.3222C127.9 61.2432 127.861 61.151 127.861 61.0456V59.0534C127.861 58.7866 127.782 58.5792 127.627 58.4376C127.472 58.2927 127.268 58.2235 127.014 58.2235C126.659 58.2235 126.369 58.2927 126.145 58.4277V61.0456C126.145 61.1576 126.105 61.2498 126.033 61.3255C125.957 61.4013 125.865 61.4375 125.76 61.4375C125.654 61.4375 125.569 61.398 125.49 61.3189C125.411 61.2399 125.374 61.1477 125.374 61.0423V58.1741C125.374 58.0424 125.424 57.9436 125.526 57.8745C125.671 57.7625 125.878 57.667 126.145 57.5913C126.412 57.5122 126.708 57.476 127.034 57.476C127.554 57.476 127.95 57.6077 128.223 57.8712C128.496 58.1346 128.631 58.5166 128.631 59.0171L128.634 59.0204Z" fill="white"/>
<path d="M130.202 57.0282C130.074 57.0282 129.971 56.9853 129.889 56.8964C129.807 56.8108 129.764 56.7054 129.764 56.5836C129.764 56.4618 129.807 56.3597 129.889 56.2774C129.971 56.195 130.077 56.1522 130.202 56.1522C130.327 56.1522 130.426 56.195 130.508 56.2774C130.591 56.3597 130.633 56.4618 130.633 56.5836C130.633 56.7054 130.591 56.8108 130.508 56.8964C130.426 56.9853 130.324 57.0282 130.202 57.0282ZM130.587 57.9271V61.0489C130.587 61.1609 130.551 61.2531 130.475 61.3288C130.4 61.4046 130.307 61.4408 130.202 61.4408C130.097 61.4408 130.011 61.4013 129.932 61.3222C129.853 61.2432 129.817 61.151 129.817 61.0456V57.9239C129.817 57.8119 129.853 57.7197 129.929 57.644C130.004 57.5682 130.093 57.532 130.202 57.532C130.311 57.532 130.4 57.5715 130.475 57.6472C130.551 57.7263 130.587 57.8185 130.587 57.9239V57.9271Z" fill="white"/>
<path d="M133.814 61.3485C133.61 61.4407 133.337 61.4868 132.998 61.4868C132.609 61.4868 132.309 61.3683 132.099 61.1345C131.891 60.8974 131.786 60.578 131.786 60.1762V57.1269C131.786 57.015 131.822 56.9228 131.898 56.847C131.974 56.7713 132.062 56.735 132.171 56.735C132.28 56.735 132.369 56.7746 132.444 56.8503C132.52 56.9293 132.556 57.0215 132.556 57.1269V57.6801H133.564C133.666 57.6801 133.752 57.7131 133.824 57.7789C133.893 57.8448 133.93 57.9271 133.93 58.0226C133.93 58.1181 133.893 58.2004 133.824 58.2663C133.755 58.3322 133.666 58.3651 133.564 58.3651H132.556V60.1828C132.556 60.5681 132.728 60.7591 133.073 60.7591C133.152 60.7591 133.327 60.7229 133.6 60.6504C133.735 60.6175 133.851 60.634 133.94 60.7064C134.028 60.7789 134.075 60.8743 134.075 60.9962C134.075 61.1608 133.989 61.2794 133.811 61.3551L133.814 61.3485Z" fill="white"/>
<path d="M136.047 61.151L134.72 58.0918C134.661 57.9502 134.671 57.8218 134.75 57.7065C134.832 57.588 134.941 57.532 135.069 57.532C135.27 57.532 135.402 57.6308 135.464 57.8251L136.449 60.1828C136.449 60.1828 136.469 60.2059 136.478 60.2059C136.498 60.2059 136.511 60.1993 136.515 60.1828L137.42 57.8415C137.493 57.6374 137.624 57.5353 137.815 57.5353C137.96 57.5353 138.072 57.5945 138.151 57.7131C138.23 57.8316 138.237 57.9601 138.181 58.0951L136.808 61.3584C136.676 61.6746 136.521 61.9545 136.34 62.2015C136.159 62.4484 135.984 62.623 135.813 62.7316C135.701 62.8041 135.593 62.8403 135.484 62.8403C135.375 62.8403 135.296 62.8074 135.224 62.7382C135.155 62.6691 135.118 62.5834 135.118 62.4748C135.118 62.3398 135.171 62.2344 135.28 62.1619C135.609 61.9578 135.866 61.6219 136.047 61.1543V61.151Z" fill="white"/>
<path d="M146.71 61.0423C146.71 61.1642 146.674 61.263 146.604 61.342C146.535 61.421 146.436 61.4573 146.318 61.4573C146.216 61.4573 146.127 61.4276 146.051 61.3651C145.975 61.3058 145.933 61.2268 145.923 61.1345L145.406 57.1204C145.399 57.0776 145.379 57.0545 145.34 57.0545C145.307 57.0545 145.284 57.0743 145.274 57.1138L144.441 60.7855C144.391 60.9897 144.306 61.1477 144.181 61.2597C144.056 61.3716 143.907 61.4276 143.733 61.4276C143.364 61.4276 143.13 61.2136 143.031 60.7855L142.192 57.1237C142.182 57.0809 142.159 57.0578 142.126 57.0578C142.093 57.0578 142.07 57.0809 142.06 57.1237L141.55 61.1378C141.54 61.23 141.497 61.3058 141.421 61.3684C141.345 61.4276 141.257 61.4606 141.154 61.4606C141.033 61.4606 140.937 61.421 140.865 61.3453C140.792 61.2696 140.759 61.1675 140.759 61.0456C140.759 61.0028 140.759 60.9732 140.766 60.96L141.342 56.9524C141.375 56.7252 141.457 56.5474 141.589 56.4256C141.721 56.3037 141.885 56.2444 142.086 56.2444C142.287 56.2444 142.452 56.3004 142.59 56.4157C142.725 56.5309 142.817 56.6956 142.867 56.9162L143.67 60.522C143.68 60.5649 143.703 60.5879 143.743 60.5879C143.782 60.5879 143.802 60.5649 143.809 60.522L144.596 56.9162C144.694 56.4684 144.948 56.2444 145.363 56.2444C145.567 56.2444 145.735 56.3037 145.867 56.4256C145.998 56.5474 146.081 56.7219 146.114 56.9524L146.697 60.96C146.697 60.96 146.703 61.0028 146.703 61.0456L146.71 61.0423Z" fill="white"/>
<path d="M150.875 59.1159V59.3201C150.875 59.6329 150.721 59.7877 150.408 59.7877H148.343V59.8766C148.343 60.1631 148.429 60.387 148.603 60.5451C148.774 60.7032 149.012 60.7822 149.308 60.7822C149.535 60.7822 149.815 60.7229 150.148 60.6077C150.293 60.5484 150.418 60.555 150.52 60.6208C150.622 60.69 150.671 60.7822 150.671 60.904C150.671 61.039 150.605 61.151 150.474 61.2333C150.19 61.4046 149.799 61.4869 149.291 61.4869C148.784 61.4869 148.399 61.342 148.086 61.0555C147.783 60.7591 147.619 60.3804 147.589 59.9161C147.566 59.6428 147.566 59.3431 147.589 59.0106C147.629 58.5429 147.8 58.1708 148.099 57.8942C148.406 57.6176 148.791 57.4793 149.252 57.4793C149.713 57.4793 150.125 57.6308 150.428 57.9304C150.724 58.2268 150.872 58.622 150.872 59.1126L150.875 59.1159ZM148.343 59.1752H150.036C150.088 59.1752 150.118 59.1456 150.125 59.0896C150.144 58.8163 150.075 58.5956 149.917 58.4244C149.759 58.2532 149.538 58.1675 149.255 58.1675C148.952 58.1675 148.725 58.2565 148.567 58.4343C148.409 58.6121 148.333 58.8591 148.343 59.1752Z" fill="white"/>
<path d="M151.771 58.948C151.811 58.4804 151.965 58.1214 152.235 57.8646C152.505 57.6077 152.871 57.4826 153.335 57.4826C153.651 57.4826 153.971 57.5517 154.29 57.6933V56.6001C154.29 56.4947 154.326 56.3992 154.402 56.3234C154.478 56.2444 154.57 56.2082 154.676 56.2082C154.781 56.2082 154.873 56.2444 154.949 56.3202C155.025 56.3959 155.061 56.4881 155.061 56.6001V60.7459C155.061 60.8777 155.015 60.9732 154.923 61.039C154.791 61.1378 154.583 61.2366 154.303 61.3453C154.027 61.4441 153.737 61.4902 153.434 61.4902C152.957 61.4902 152.571 61.3551 152.275 61.0851C151.979 60.8151 151.811 60.4496 151.771 59.9853C151.741 59.6461 151.741 59.3003 151.771 58.948ZM152.545 59.8898C152.588 60.4595 152.891 60.7427 153.451 60.7427C153.592 60.7427 153.744 60.7163 153.912 60.6636C154.076 60.6109 154.201 60.5484 154.29 60.4825V58.454C154.053 58.3025 153.754 58.2268 153.391 58.2268C152.858 58.2268 152.575 58.4968 152.545 59.0369C152.525 59.3563 152.525 59.6428 152.545 59.8898Z" fill="white"/>
<path d="M156.661 57.0282C156.533 57.0282 156.431 56.9853 156.348 56.8964C156.266 56.8108 156.223 56.7054 156.223 56.5836C156.223 56.4618 156.266 56.3597 156.348 56.2774C156.431 56.195 156.536 56.1522 156.661 56.1522C156.786 56.1522 156.885 56.195 156.967 56.2774C157.05 56.3597 157.093 56.4618 157.093 56.5836C157.093 56.7054 157.05 56.8108 156.967 56.8964C156.885 56.9853 156.783 57.0282 156.661 57.0282ZM157.047 57.9271V61.0489C157.047 61.1609 157.01 61.2531 156.935 61.3288C156.859 61.4046 156.767 61.4408 156.661 61.4408C156.556 61.4408 156.47 61.4013 156.391 61.3222C156.312 61.2432 156.276 61.151 156.276 61.0456V57.9239C156.276 57.8119 156.312 57.7197 156.388 57.644C156.464 57.5682 156.553 57.532 156.661 57.532C156.77 57.532 156.859 57.5715 156.935 57.6472C157.01 57.7263 157.047 57.8185 157.047 57.9239V57.9271Z" fill="white"/>
<path d="M159.885 60.7427C160.283 60.7427 160.563 60.5681 160.725 60.2158C160.797 60.0742 160.909 60.005 161.061 60.005C161.166 60.005 161.255 60.0413 161.324 60.117C161.393 60.1927 161.426 60.2849 161.426 60.3969C161.426 60.6241 161.281 60.8645 160.995 61.1115C160.712 61.3585 160.339 61.4836 159.872 61.4836C159.404 61.4836 159.022 61.3387 158.703 61.0522C158.397 60.769 158.222 60.4134 158.186 59.9787C158.166 59.6296 158.166 59.2839 158.186 58.9414C158.215 58.5034 158.383 58.1511 158.696 57.8843C159.012 57.611 159.404 57.476 159.872 57.476C160.339 57.476 160.712 57.6011 160.988 57.8481C161.271 58.0951 161.41 58.3355 161.41 58.5627C161.41 58.6747 161.377 58.7669 161.308 58.8426C161.238 58.9183 161.153 58.9546 161.044 58.9546C160.893 58.9546 160.784 58.8854 160.715 58.7438C160.554 58.3948 160.277 58.2169 159.882 58.2169C159.608 58.2169 159.394 58.2861 159.233 58.4277C159.072 58.5693 158.979 58.7669 158.956 59.0171C158.933 59.3366 158.933 59.6263 158.956 59.8865C158.979 60.1433 159.072 60.3508 159.233 60.5023C159.394 60.6538 159.608 60.7328 159.882 60.7328L159.885 60.7427Z" fill="white"/>
<path d="M162.783 57.0282C162.654 57.0282 162.552 56.9853 162.47 56.8964C162.388 56.8108 162.345 56.7054 162.345 56.5836C162.345 56.4618 162.388 56.3597 162.47 56.2774C162.552 56.195 162.658 56.1522 162.783 56.1522C162.908 56.1522 163.007 56.195 163.089 56.2774C163.171 56.3597 163.214 56.4618 163.214 56.5836C163.214 56.7054 163.171 56.8108 163.089 56.8964C163.007 56.9853 162.905 57.0282 162.783 57.0282ZM163.171 57.9271V61.0489C163.171 61.1609 163.135 61.2531 163.059 61.3288C162.984 61.4046 162.892 61.4408 162.786 61.4408C162.681 61.4408 162.595 61.4013 162.516 61.3222C162.437 61.2432 162.401 61.151 162.401 61.0456V57.9239C162.401 57.8119 162.437 57.7197 162.513 57.644C162.589 57.5682 162.678 57.532 162.786 57.532C162.895 57.532 162.984 57.5715 163.059 57.6472C163.135 57.7263 163.171 57.8185 163.171 57.9239V57.9271Z" fill="white"/>
<path d="M167.66 59.0204V61.0489C167.66 61.1609 167.624 61.2531 167.551 61.3288C167.479 61.4046 167.387 61.4408 167.275 61.4408C167.172 61.4408 167.084 61.4013 167.005 61.3222C166.926 61.2432 166.889 61.151 166.889 61.0456V59.0534C166.889 58.7866 166.81 58.5792 166.655 58.4376C166.501 58.2927 166.297 58.2235 166.043 58.2235C165.687 58.2235 165.398 58.2927 165.174 58.4277V61.0456C165.174 61.1576 165.137 61.2498 165.062 61.3255C164.986 61.4013 164.897 61.4375 164.788 61.4375C164.68 61.4375 164.597 61.398 164.518 61.3189C164.439 61.2399 164.403 61.1477 164.403 61.0423V58.1741C164.403 58.0424 164.456 57.9436 164.555 57.8745C164.699 57.7625 164.907 57.667 165.174 57.5913C165.44 57.5122 165.737 57.476 166.063 57.476C166.583 57.476 166.978 57.6077 167.252 57.8712C167.525 58.1346 167.66 58.5166 167.66 59.0171V59.0204Z" fill="white"/>
<path d="M172 59.1159V59.3201C172 59.6329 171.845 59.7877 171.532 59.7877H169.468V59.8766C169.468 60.1631 169.553 60.387 169.728 60.5451C169.902 60.7032 170.136 60.7822 170.433 60.7822C170.66 60.7822 170.94 60.7229 171.272 60.6077C171.417 60.5484 171.542 60.555 171.644 60.6208C171.746 60.69 171.796 60.7822 171.796 60.904C171.796 61.039 171.73 61.151 171.598 61.2333C171.315 61.4046 170.923 61.4869 170.416 61.4869C169.909 61.4869 169.524 61.342 169.211 61.0555C168.908 60.7591 168.743 60.3804 168.714 59.9161C168.691 59.6428 168.691 59.3431 168.714 59.0106C168.753 58.5429 168.921 58.1708 169.224 57.8942C169.53 57.6176 169.916 57.4793 170.377 57.4793C170.838 57.4793 171.249 57.6308 171.552 57.9304C171.849 58.2268 171.997 58.622 171.997 59.1126L172 59.1159ZM169.468 59.1752H171.16C171.213 59.1752 171.243 59.1456 171.249 59.0896C171.269 58.8163 171.2 58.5956 171.042 58.4244C170.884 58.2532 170.663 58.1675 170.38 58.1675C170.077 58.1675 169.85 58.2565 169.692 58.4343C169.534 58.6121 169.458 58.8591 169.468 59.1752Z" fill="white"/>
<path d="M171.032 20.5318L157.412 12.217C156.931 11.9239 156.329 11.9239 155.848 12.217L147.605 17.2454L143.064 14.4727C140.298 12.7867 136.86 12.7867 134.098 14.4727C131.519 16.0468 129.978 18.7898 129.978 21.8128C129.978 23.3078 130.353 24.7337 131.045 25.985C131.582 25.007 132.319 24.1377 133.215 23.4231C133.064 22.9094 132.981 22.3693 132.981 21.8128C132.981 19.8469 133.986 18.0588 135.665 17.0347C136.567 16.4847 137.578 16.2114 138.586 16.2114C139.594 16.2114 140.605 16.4847 141.507 17.0347L146.828 20.2816C147.309 20.5746 147.912 20.5746 148.392 20.2816L156.635 15.2531L167.377 21.8095L163.438 24.22L160.56 25.9817L155.854 28.8631L147.612 33.8915L139.37 28.8631L135.662 26.5942C135.365 26.4131 135.092 26.209 134.838 25.9784C134.065 26.67 133.508 27.5558 133.218 28.5371C133.495 28.761 133.788 28.9652 134.098 29.1529L137.805 31.4251L146.832 36.931C147.072 37.0792 147.342 37.1516 147.615 37.1516C147.889 37.1516 148.155 37.0792 148.396 36.931L157.422 31.4251L163.445 27.7369L166.32 25.9752L171.042 23.0839C171.486 22.8106 171.76 22.3265 171.76 21.8029C171.76 21.2793 171.486 20.7986 171.038 20.5252L171.032 20.5318Z" fill="#00CAFF"/>
<path d="M171.032 28.8631L166.313 25.9818L163.438 27.7435L167.37 30.1441L155.848 37.201L147.605 42.2294L139.363 37.201L135.655 34.9321C133.979 33.9047 132.978 32.1166 132.978 30.1507C132.978 29.5942 133.057 29.0574 133.212 28.5437C133.502 27.5591 134.061 26.6733 134.832 25.9851C135.085 25.7578 135.362 25.5537 135.662 25.3726C136.564 24.8226 137.575 24.546 138.583 24.546C139.59 24.546 140.601 24.8226 141.504 25.3726L146.825 28.6195C147.306 28.9125 147.908 28.9125 148.389 28.6195L156.632 23.591L160.557 25.9884L163.435 24.2266L157.415 20.5516C156.935 20.2552 156.332 20.2585 155.851 20.5516L147.609 25.58L143.068 22.8073C140.302 21.1213 136.864 21.1213 134.101 22.8073C133.791 22.9983 133.495 23.2025 133.215 23.4264C132.319 24.141 131.585 25.0103 131.045 25.9884C130.357 27.2364 129.978 28.659 129.978 30.1474C129.978 33.1671 131.516 35.9135 134.091 37.4908L137.799 39.763L146.825 45.2689C147.065 45.4138 147.335 45.4895 147.609 45.4895C147.882 45.4895 148.149 45.4138 148.389 45.2689L157.415 39.7597L171.035 31.4218C171.48 31.1485 171.753 30.6644 171.753 30.1408C171.753 29.6172 171.48 29.1332 171.032 28.8598V28.8631Z" fill="white"/>
<path d="M147.517 12.8262C143.98 12.8262 141.102 9.94815 141.102 6.41147C141.102 2.87479 143.98 0 147.517 0C151.053 0 153.931 2.87808 153.931 6.41476C153.931 9.95145 151.053 12.8295 147.517 12.8295V12.8262ZM147.517 3.00322C145.636 3.00322 144.105 4.53446 144.105 6.41476C144.105 8.29507 145.636 9.82631 147.517 9.82631C149.397 9.82631 150.928 8.29507 150.928 6.41476C150.928 4.53446 149.397 3.00322 147.517 3.00322Z" fill="#00CAFF"/>
<path opacity="0.83" d="M135.411 26.4362C134.694 27.1541 134.15 28.0234 133.831 28.9883C133.62 28.8565 133.413 28.7051 133.212 28.547C133.498 27.5624 134.058 26.6766 134.832 25.9883C135.013 26.153 135.207 26.3012 135.411 26.4395V26.4362Z" fill="#00AFFF"/>
<path opacity="0.23" d="M166.879 26.3308L164.008 28.0926L163.435 27.7435L166.313 25.9818L166.879 26.3308Z" fill="#0080FF"/>
<path d="M165.526 44.3007C165.526 44.3007 165.503 44.2645 165.503 44.2382V42.2196H164.775C164.749 42.2196 164.729 42.213 164.713 42.1965C164.696 42.18 164.69 42.1603 164.69 42.1339V41.9858C164.69 41.9594 164.696 41.9364 164.713 41.9199C164.729 41.9034 164.749 41.8969 164.775 41.8969H166.583C166.609 41.8969 166.632 41.9034 166.646 41.9199C166.662 41.9364 166.669 41.9594 166.669 41.9858V42.1339C166.669 42.1603 166.662 42.18 166.646 42.1965C166.629 42.213 166.609 42.2196 166.583 42.2196H165.862V44.2382C165.862 44.2645 165.852 44.2843 165.835 44.3007C165.819 44.3172 165.796 44.3238 165.773 44.3238H165.592C165.565 44.3238 165.546 44.3172 165.529 44.3007H165.526Z" fill="white"/>
<path d="M167.123 44.3007C167.123 44.3007 167.1 44.2645 167.1 44.2382V41.9891C167.1 41.9627 167.107 41.9397 167.123 41.9232C167.139 41.9067 167.159 41.9001 167.186 41.9001H167.363C167.41 41.9001 167.439 41.9199 167.459 41.9561L168.259 43.494L169.069 41.9561C169.089 41.9199 169.119 41.9001 169.158 41.9001H169.336C169.362 41.9001 169.385 41.9067 169.398 41.9232C169.415 41.9397 169.422 41.9627 169.422 41.9891V44.2382C169.422 44.2645 169.415 44.2843 169.398 44.3007C169.382 44.3172 169.362 44.3238 169.336 44.3238H169.161C169.135 44.3238 169.115 44.3172 169.102 44.3007C169.086 44.2843 169.079 44.2645 169.079 44.2382V42.5752L168.437 43.82C168.411 43.8727 168.371 43.899 168.315 43.899H168.203C168.15 43.899 168.111 43.8727 168.081 43.82L167.442 42.5752V44.2382C167.442 44.2645 167.436 44.2843 167.419 44.3007C167.403 44.3172 167.383 44.3238 167.357 44.3238H167.189C167.163 44.3238 167.143 44.3172 167.126 44.3007H167.123Z" fill="white"/>
</g>
<defs>
<clipPath id="clip0_43_184">
<rect width="172" height="62.837" fill="white"/>
</clipPath>
</defs>
</svg>
