<svg width="150" height="45" viewBox="0 0 150 45" fill="none" xmlns="http://www.w3.org/2000/svg">
<g clip-path="url(#clip0_43_157)">
<path d="M25.0375 9.01559C25.0375 9.01559 11.7173 1.34612 4.69182 7.68968C4.47417 7.95978 4.44678 8.34542 4.63705 8.64295C4.70624 8.75705 6.4518 11.4479 10.6233 11.4479C12.7061 11.4479 14.3638 10.4498 15.9652 9.47923C17.5147 8.54474 18.972 7.6608 20.7795 7.6608C22.355 7.6608 23.684 8.27898 25.0375 9.01559Z" fill="#D6D1ED"/>
<path d="M40.1739 13.2836C40.0499 12.9601 39.7299 12.7435 39.3768 12.7608C39.2442 12.7651 36.0442 12.9327 33.9585 16.5536C32.9163 18.362 32.9509 20.2988 32.9884 22.1736C33.0216 23.9848 33.0561 25.692 32.1524 27.2606C31.3654 28.6269 30.1661 29.4719 28.8544 30.2778C28.8659 30.2706 42.14 22.5506 40.1725 13.2851" fill="#D6D1ED"/>
<path d="M17.7468 34.2237C16.7047 32.4154 15.0139 31.4766 13.375 30.5724C11.7923 29.6957 10.299 28.8724 9.39664 27.3039C8.60962 25.9375 8.47845 24.4744 8.4381 22.9333C8.4381 22.9376 8.47125 38.3257 17.4643 41.2519C17.8059 41.3053 18.1533 41.1364 18.3147 40.8215C18.3781 40.7045 19.8311 37.8433 17.7468 34.2237Z" fill="#D6D1ED"/>
<path d="M4.69183 7.68969C8.6543 2.80203 14.5209 0 20.781 0C27.0411 0 32.9005 2.80203 36.8629 7.68969C37.0993 7.98289 37.1051 8.39886 36.8774 8.69929C36.801 8.79895 34.9415 11.1922 30.9329 11.1922C28.9366 11.1922 27.2905 10.2736 25.7063 9.38391C25.4815 9.25969 25.2595 9.13548 25.0375 9.01416C25.0375 9.01416 11.7173 1.34613 4.69183 7.68825" fill="#6B47F5"/>
<path d="M40.1739 13.2836C42.4153 19.1664 41.9051 25.6573 38.7757 31.0895C35.6493 36.5159 30.2944 40.2048 24.0891 41.1999C23.7186 41.2591 23.3539 41.0555 23.2084 40.7074C23.1608 40.5919 22.0221 37.7797 24.0256 34.3032C25.0231 32.57 26.6404 31.6023 28.2029 30.6721C28.4234 30.5407 28.6411 30.4092 28.8558 30.2763C28.8558 30.2763 42.1429 22.552 40.1739 13.2836Z" fill="#6B47F5"/>
<path d="M17.4643 41.2505C11.259 40.2554 5.90406 36.5665 2.77473 31.1343C-0.351712 25.7079 -0.863417 19.217 1.37944 13.3342C1.51349 12.9818 1.87096 12.7695 2.24573 12.8171C2.36969 12.8345 5.3693 13.2504 7.37287 16.7284C8.37034 18.4602 8.39917 20.3479 8.42367 22.1678C8.42799 22.4249 8.43232 22.6791 8.43953 22.9319C8.43953 22.9319 8.47124 38.3243 17.4657 41.2505" fill="#6B47F5"/>
<path d="M62.5087 36.4091C62.3387 36.5333 62.0864 36.721 61.6987 36.8611C61.3109 37.0012 60.8929 37.0706 60.4446 37.0706C60.165 37.0706 59.8983 37.0402 59.6432 36.9767C59.3881 36.9146 59.1632 36.8063 58.97 36.6503C58.7755 36.4957 58.6255 36.2892 58.5174 36.0335C58.4093 35.7779 58.3546 35.4486 58.3546 35.0442V29.8517H62.8158C62.8619 29.7593 62.9239 29.6004 63.0017 29.3751C63.0795 29.1498 63.1185 28.9057 63.1185 28.6414C63.1185 28.2384 63.0132 27.9308 62.8057 27.7213C62.5967 27.5119 62.2363 27.4065 61.7246 27.4065H58.356V24.3575C58.2782 24.3257 58.1196 24.2751 57.8803 24.2058C57.6396 24.1365 57.3816 24.1018 57.102 24.1018C56.6681 24.1018 56.3279 24.1986 56.08 24.3921C55.8321 24.5857 55.7081 24.9005 55.7081 25.3353V27.4079H54.3705C53.8588 27.4079 53.4984 27.5133 53.2894 27.7228C53.0804 27.9322 52.9766 28.2399 52.9766 28.6428C52.9766 28.9071 53.0155 29.1512 53.0919 29.3766C53.1698 29.6019 53.2317 29.7607 53.2779 29.8532H55.7081V35.58C55.7081 36.7283 56.0569 37.6555 56.7531 38.3618C57.4493 39.0681 58.48 39.4205 59.8435 39.4205C60.3235 39.4205 60.7646 39.3772 61.1682 39.292C61.5704 39.2068 61.9351 39.1013 62.2608 38.9771C62.5866 38.8529 62.8604 38.7215 63.0853 38.5814C63.3102 38.4413 63.4846 38.3257 63.6085 38.2318C63.6085 38.2318 63.5019 37.7494 63.2064 37.2627C62.9123 36.7759 62.5116 36.4062 62.5116 36.4062" fill="white"/>
<path d="M122.925 27.4093C122.475 27.4093 122.126 27.5061 121.88 27.7011C121.632 27.896 121.508 28.2095 121.508 28.6442V39.0969H124.157V27.6664C124.079 27.6361 123.925 27.5841 123.693 27.5147C123.461 27.4454 123.204 27.4093 122.926 27.4093" fill="white"/>
<path d="M122.832 22.1707C122.383 22.1707 122.003 22.3267 121.694 22.6358C121.384 22.9463 121.229 23.3262 121.229 23.7768C121.229 24.2275 121.384 24.6073 121.694 24.9179C122.003 25.2284 122.383 25.3829 122.832 25.3829C123.282 25.3829 123.661 25.2284 123.971 24.9179C124.281 24.6073 124.435 24.2275 124.435 23.7768C124.435 23.3262 124.279 22.9463 123.971 22.6358C123.661 22.3253 123.282 22.1707 122.832 22.1707Z" fill="white"/>
<path d="M147.276 37.2207C146.695 37.28 145.196 37.3493 145.032 37.3522C144.21 37.3681 143.329 37.3276 142.552 37.0359C141.871 36.7802 141.228 36.2184 141.088 35.4904C141.068 35.3835 141.058 35.2738 141.061 35.1597C141.076 34.4187 141.561 33.7182 142.201 33.3831C142.943 32.9931 143.916 33.0437 144.728 33.0928C145.479 33.139 146.46 33.23 147.266 33.321C147.27 33.6431 147.273 33.8959 147.276 33.8959V37.2193V37.2207ZM148.181 28.2167C147.638 27.8296 146.992 27.5465 146.241 27.3674C145.489 27.1898 144.657 27.1002 143.743 27.1002C142.983 27.1002 142.356 27.1464 141.862 27.2403C141.365 27.3328 140.97 27.4613 140.677 27.6245C140.382 27.7877 140.178 27.974 140.062 28.1835C139.946 28.3929 139.887 28.6067 139.887 28.8233C139.887 29.1353 139.968 29.3982 140.131 29.6148C140.294 29.8344 140.422 29.9802 140.514 30.0568C140.684 29.9167 141.037 29.7477 141.571 29.5441C142.106 29.3433 142.813 29.2422 143.697 29.2422C144.222 29.2422 144.703 29.2812 145.137 29.3592C145.569 29.4386 145.941 29.5787 146.253 29.778C146.561 29.9802 146.806 30.2604 146.985 30.6158C147.061 30.7703 147.117 30.9451 147.162 31.1328C145.793 30.9682 144.213 30.8338 143.303 30.9205C142.332 31.0115 141.34 31.2007 140.516 31.725C138.738 32.8516 138.13 35.2535 139.164 37.0806C139.664 37.9631 140.55 38.577 141.505 38.9193C142.457 39.2602 143.481 39.354 144.493 39.393C146.049 39.4537 147.623 39.3555 149.17 39.172C149.502 39.1345 149.747 39.0998 149.902 39.0681V32.0601C149.902 31.1617 149.751 30.3933 149.45 29.7549C149.148 29.1194 148.725 28.6067 148.184 28.2181" fill="white"/>
<path d="M72.6838 37.2208C72.1029 37.28 70.6038 37.3493 70.4395 37.3522C69.6179 37.3681 68.7371 37.3276 67.9602 37.0344C67.2784 36.7788 66.6356 36.2169 66.4957 35.489C66.4756 35.3821 66.4655 35.2723 66.4683 35.1582C66.4842 34.4173 66.9685 33.7168 67.6085 33.3817C68.3508 32.9917 69.3238 33.0408 70.1353 33.0914C70.8863 33.1376 71.8679 33.2286 72.6737 33.3196C72.6766 33.6417 72.6809 33.8944 72.6838 33.8944V37.2179V37.2208ZM93.3278 27.3949C92.9098 27.3602 92.4615 27.4714 92.1747 27.7762C91.97 27.9928 91.8662 28.2832 91.7668 28.5648C90.9379 30.9075 90.1106 33.2488 89.2817 35.5915C88.4126 33.0856 87.5434 30.5811 86.6742 28.0752C86.6252 27.9336 86.5719 27.7849 86.4609 27.6838C86.334 27.5682 86.1567 27.5335 85.9881 27.5047C85.3438 27.392 84.587 27.3126 84.1272 27.7762C83.9211 27.9827 83.8144 28.2658 83.7135 28.5403C82.8919 30.7732 82.0919 33.0134 81.3136 35.2622C80.9071 34.2209 80.9518 34.2339 80.5453 33.1925C80.4977 33.0726 80.4458 32.9441 80.3392 32.8718C80.2483 32.8112 80.0711 32.7476 79.9658 32.7187C78.7522 32.3808 76.7543 31.8016 75.2841 31.4333C75.2293 30.7992 75.0881 30.2388 74.8589 29.7549C74.5562 29.1194 74.1338 28.6067 73.5919 28.2182C73.0484 27.8311 72.4027 27.548 71.6517 27.3689C70.8993 27.1912 70.0676 27.1017 69.1537 27.1017C68.3941 27.1017 67.7671 27.1479 67.2727 27.2418C66.7754 27.3357 66.3804 27.4628 66.0878 27.626C65.7923 27.7892 65.5876 27.9755 65.4723 28.1849C65.3556 28.3944 65.2979 28.6081 65.2979 28.8248C65.2979 29.1368 65.3786 29.3996 65.5415 29.6163C65.7044 29.8358 65.8312 29.9817 65.9249 30.0583C66.095 29.9182 66.4482 29.7477 66.9829 29.5455C67.5177 29.3448 68.2254 29.2422 69.109 29.2422C69.6337 29.2422 70.1151 29.2812 70.549 29.3592C70.9814 29.4386 71.3533 29.5787 71.6647 29.7781C71.9731 29.9803 72.2182 30.2605 72.3969 30.6158C72.4733 30.7703 72.5295 30.9451 72.5728 31.1329C71.2034 30.9682 69.6236 30.8339 68.7141 30.9205C67.7426 31.013 66.7509 31.2007 65.9264 31.725C64.1491 32.8516 63.5408 35.2536 64.5743 37.0807C65.073 37.9632 65.961 38.577 66.9152 38.9193C67.868 39.2602 68.8914 39.3541 69.9033 39.3931C71.46 39.4537 73.034 39.3555 74.5807 39.1735C74.9122 39.136 75.1572 39.1013 75.3129 39.0681V33.7384C76.5958 34.0331 78.1136 34.4548 78.1525 34.491C78.4898 34.8044 79.9024 39.0999 79.9341 39.0999C80.8465 39.0999 81.7575 39.1013 82.6699 39.1027C83.5564 36.4726 84.3996 33.828 85.2011 31.1704C86.0025 33.8338 86.863 36.4784 87.7812 39.1027C88.698 39.1027 89.6147 39.1042 90.53 39.1056C91.8619 35.3287 93.1923 31.5503 94.5242 27.7733C94.5213 27.7719 94.517 27.7704 94.5141 27.769C94.1365 27.5956 93.7444 27.4353 93.3307 27.4007" fill="white"/>
<path d="M77.4909 27.4107C77.0426 27.4107 76.7096 27.535 76.492 27.7834C76.2758 28.0304 76.2441 28.1936 76.2441 28.5186C76.2441 28.5792 76.5496 29.6004 77.0109 30.8959L80.0336 31.7611C79.4599 30.1521 78.7637 27.9596 78.6772 27.6418C78.6166 27.6101 78.4898 27.5624 78.2938 27.5017C78.1006 27.4396 77.8339 27.4093 77.4923 27.4093" fill="white"/>
<path d="M105.695 27.3891C105.261 27.3891 104.921 27.4858 104.673 27.6808C104.448 27.857 104.316 28.1329 104.303 28.5041V34.1111C104.303 35.1669 104.051 35.9699 103.547 36.5202C103.044 37.0705 102.289 37.3464 101.282 37.3464C100.274 37.3464 99.5389 37.0705 99.0286 36.5202C98.5184 35.9685 98.2618 35.1654 98.2618 34.1111V30.6952V27.6462C98.1839 27.6158 98.0254 27.5653 97.7861 27.4945C97.5454 27.4252 97.2859 27.3891 97.0077 27.3891C96.5739 27.3891 96.2337 27.4858 95.9858 27.6808C95.7393 27.8744 95.6168 28.1849 95.6139 28.6139V34.7856C95.6139 35.5612 95.7537 36.2559 96.0319 36.8698C96.3115 37.4822 96.7022 38.0021 97.2052 38.4297C97.7083 38.8557 98.3093 39.1822 99.0056 39.4075C99.7032 39.6328 100.461 39.7454 101.283 39.7454C102.105 39.7454 102.86 39.6328 103.549 39.4075C104.238 39.1822 104.835 38.8557 105.338 38.4297C105.841 38.0021 106.236 37.4822 106.523 36.8698C106.809 36.2559 106.952 35.5626 106.952 34.7856V27.6447C106.874 27.6144 106.716 27.5638 106.476 27.4931C106.236 27.4237 105.976 27.3876 105.698 27.3876" fill="white"/>
<path d="M118.283 28.3828C117.78 27.9567 117.183 27.6303 116.494 27.405C115.805 27.1797 115.05 27.067 114.23 27.067C113.41 27.067 112.65 27.1797 111.954 27.405C111.256 27.6303 110.657 27.9567 110.154 28.3828C109.65 28.8103 109.258 29.3303 108.98 29.9427C108.702 30.5566 108.562 31.2498 108.562 32.0269V38.1986C108.564 38.6276 108.688 38.9395 108.934 39.1316C109.182 39.3252 109.522 39.4234 109.956 39.4234C110.234 39.4234 110.494 39.3887 110.734 39.3194C110.974 39.2501 111.134 39.1995 111.21 39.1677V36.1187V32.7029C111.21 31.647 111.465 30.844 111.977 30.2937C112.487 29.7434 113.24 29.4675 114.23 29.4675C115.22 29.4675 115.993 29.7434 116.494 30.2937C116.999 30.8454 117.25 31.6485 117.25 32.7029V38.3112H117.251C117.264 38.6824 117.397 38.9583 117.622 39.1345C117.869 39.3281 118.21 39.4263 118.644 39.4263C118.922 39.4263 119.181 39.3916 119.422 39.3223C119.661 39.253 119.821 39.2024 119.898 39.1706V32.0298C119.898 31.2542 119.755 30.5594 119.468 29.9456C119.181 29.3332 118.786 28.8132 118.283 28.3857" fill="white"/>
<path d="M91.6471 14.4709H89.1318C88.5264 14.4709 86.0284 14.4333 86.0284 11.6789C86.0284 9.84608 87.1614 8.70504 88.7715 8.70504C90.6295 8.70504 91.6471 10.0671 91.6471 12.7911V14.4709ZM94.2964 12.5918C94.2964 8.98091 92.6619 6.47931 88.9978 6.47931C86.1236 6.47931 83.3359 8.09698 83.3359 11.7685C83.3359 15.44 86.4032 16.7183 89.1794 16.7183H91.6485V17.0808C91.6485 18.5309 90.7505 20.0316 88.6835 20.0316C87.5203 20.0316 86.7261 19.7254 85.0439 18.8718C84.1315 19.9969 84.6922 20.9184 85.5715 21.3561C86.6439 21.8905 87.8288 22.1519 89.0252 22.1692C92.8723 22.2256 94.2979 19.9247 94.2979 16.0683V12.5903L94.2964 12.5918Z" fill="white"/>
<path d="M60.9578 11.4739C60.9578 12.4127 60.7199 13.1464 60.2443 13.6765C59.7686 14.2066 59.107 14.4709 58.2623 14.4709C57.4176 14.4709 56.805 14.2369 56.3366 13.7675C55.8681 13.2981 55.6346 12.6698 55.6346 11.8826C55.6346 10.899 56.005 10.1494 56.7445 9.63524C57.4839 9.12105 58.565 8.86396 59.9834 8.86396H60.9578V11.4739ZM66.0777 16.74C66.4078 16.7429 66.8633 16.7371 67.1861 16.74C68.3364 16.7486 69.5371 16.7891 70.6326 16.3774C71.2365 16.1507 71.705 15.7491 72.0365 15.1743C72.58 16.2041 73.5097 16.7183 74.8228 16.7183H81.9492V6.86498C81.8137 6.78988 81.5442 6.72922 81.3164 6.683C81.0887 6.63678 80.871 6.61511 80.6591 6.61511C80.2512 6.61511 79.9226 6.71766 79.6732 6.92131C79.4238 7.12497 79.2999 7.42395 79.2999 7.81825V14.4695H76.5208C75.4542 14.4695 74.0516 14.5186 73.6077 13.2894C73.4491 12.8503 73.3699 12.2379 73.3699 11.4508V6.86498C73.2344 6.78988 72.9648 6.72922 72.7385 6.683C72.5122 6.63822 72.2931 6.61511 72.0812 6.61511C71.6733 6.61511 71.3447 6.71766 71.0953 6.92131C70.8459 7.12497 70.722 7.42395 70.722 7.81825V11.4508C70.722 12.2221 70.6456 12.8287 70.4957 13.2663C70.1425 14.2932 69.0268 14.4622 68.064 14.4781C67.3389 14.4897 66.4568 14.5027 65.7375 14.4695C65.1811 14.4435 64.5368 14.3279 64.1375 13.9018C63.7829 13.5234 63.6057 12.8648 63.6057 11.9274V6.61511H59.9401C57.7794 6.61511 56.0771 7.08019 54.8317 8.01179C53.5863 8.9434 52.9622 10.226 52.9622 11.8595C52.9622 12.8287 53.177 13.6751 53.6079 14.4016C54.0389 15.1281 54.6458 15.6957 55.4313 16.1045C56.2169 16.5132 57.2115 16.7169 58.2378 16.7169C59.9603 16.7169 61.3109 16.1796 62.294 15.105C62.6111 15.6192 63.0521 16.0164 63.6186 16.2966C64.3811 16.6735 65.2316 16.7327 66.0763 16.7385" fill="white"/>
<path d="M57.4912 5.30077C57.9034 5.30077 58.2522 5.15345 58.5376 4.86025C58.823 4.5656 58.9657 4.2204 58.9657 3.82321C58.9657 3.42601 58.823 3.06059 58.5376 2.77461C58.2522 2.48863 57.9034 2.34564 57.4912 2.34564C57.0789 2.34564 56.7531 2.48863 56.4677 2.77461C56.1823 3.06059 56.0396 3.41012 56.0396 3.82321C56.0396 4.23629 56.1823 4.5656 56.4677 4.86025C56.7531 5.15489 57.0948 5.30077 57.4912 5.30077Z" fill="white"/>
<path d="M61.4551 5.30077C61.8673 5.30077 62.2204 5.15345 62.5131 4.86025C62.8071 4.5656 62.9527 4.2204 62.9527 3.82321C62.9527 3.42601 62.8057 3.06059 62.5131 2.77461C62.219 2.48863 61.8673 2.34564 61.4551 2.34564C61.0428 2.34564 60.717 2.48863 60.4316 2.77461C60.1462 3.06059 60.0035 3.41012 60.0035 3.82321C60.0035 4.23629 60.1462 4.5656 60.4316 4.86025C60.717 5.15489 61.0587 5.30077 61.4551 5.30077Z" fill="white"/>
<path d="M80.6173 5.25597C81.0296 5.25597 81.3784 5.10865 81.6638 4.81545C81.9492 4.5208 82.0919 4.1756 82.0919 3.77841C82.0919 3.38121 81.9492 3.03601 81.6638 2.74137C81.3784 2.44817 81.0296 2.30084 80.6173 2.30084C80.2051 2.30084 79.8476 2.44817 79.5464 2.74137C79.2451 3.03601 79.0938 3.38121 79.0938 3.77841C79.0938 4.1756 79.2437 4.5208 79.5464 4.81545C79.8476 5.11009 80.2036 5.25597 80.6173 5.25597Z" fill="white"/>
<path d="M136.127 27.4093C135.693 27.4093 135.351 27.5104 135.105 27.7126C134.857 27.9148 134.733 28.2254 134.733 28.6442V33.6258C134.733 34.696 134.462 35.5078 133.92 36.0581C133.378 36.6098 132.634 36.8842 131.688 36.8842C130.666 36.8842 129.911 36.6127 129.424 36.0696C128.935 35.5265 128.692 34.7971 128.692 33.8814V27.665C128.614 27.6346 128.455 27.5826 128.215 27.5133C127.974 27.444 127.714 27.4079 127.436 27.4079C127.002 27.4079 126.662 27.509 126.414 27.7112C126.166 27.9134 126.042 28.2239 126.042 28.6428V34.4158C126.042 35.177 126.171 35.8515 126.426 36.4408C126.681 37.0301 127.033 37.5226 127.482 37.9184C127.931 38.3141 128.473 38.6174 129.108 38.8269C129.742 39.0363 130.433 39.1417 131.177 39.1417C131.967 39.1417 132.69 39.006 133.349 38.7344C134.008 38.4629 134.491 38.1018 134.802 37.6512C134.802 40.9428 134.364 42.858 130.922 42.858C129.012 42.858 127.684 42.432 127.158 42.2066C127.073 42.3915 126.671 43.1686 126.891 43.8344C127.037 44.2735 127.441 44.4858 127.853 44.6071C129.066 44.9682 131.537 45.1285 133.105 44.8715C136.36 44.337 137.382 42.1099 137.382 37.8606V27.6635C137.304 27.6332 137.146 27.5812 136.906 27.5119C136.666 27.4425 136.406 27.4064 136.128 27.4064" fill="white"/>
<path d="M148.619 0.365417C147.847 0.365417 147.26 0.746724 147.26 1.56856V16.7183H149.909V0.615289C149.51 0.443412 148.98 0.365417 148.621 0.365417" fill="white"/>
<path d="M135.756 5.30077C136.168 5.30077 136.521 5.15345 136.814 4.86025C137.107 4.5656 137.254 4.2204 137.254 3.82321C137.254 3.42601 137.107 3.06059 136.814 2.77461C136.52 2.48863 136.168 2.34564 135.756 2.34564C135.344 2.34564 135.018 2.48863 134.733 2.77461C134.447 3.06059 134.305 3.41012 134.305 3.82321C134.305 4.23629 134.447 4.5656 134.733 4.86025C135.018 5.15489 135.36 5.30077 135.756 5.30077Z" fill="white"/>
<path d="M131.791 5.30077C132.203 5.30077 132.552 5.15345 132.837 4.86025C133.123 4.5656 133.265 4.2204 133.265 3.82321C133.265 3.42601 133.123 3.06059 132.837 2.77461C132.552 2.48863 132.203 2.34564 131.791 2.34564C131.379 2.34564 131.053 2.48863 130.767 2.77461C130.482 3.06059 130.339 3.41012 130.339 3.82321C130.339 4.23629 130.482 4.5656 130.767 4.86025C131.053 5.15489 131.394 5.30077 131.791 5.30077Z" fill="white"/>
<path d="M145.497 16.7183V0.615289C145.362 0.540183 145.092 0.479521 144.864 0.433302C144.638 0.388527 144.419 0.365417 144.207 0.365417C143.799 0.365417 143.471 0.467966 143.221 0.671619C142.972 0.876715 142.848 1.17425 142.848 1.56856V14.4709H135.254V6.8953C135.044 6.80864 134.831 6.72776 134.609 6.67576C134.39 6.62521 134.169 6.61654 133.946 6.61654C133.52 6.61654 133.193 6.71909 132.96 6.9213C132.725 7.12639 132.608 7.44126 132.608 7.86445V14.4709H123.432C118.496 14.4709 116.071 11.6111 114.688 9.86776C115.993 8.77006 117.489 8.67184 118.335 8.72817C119.52 8.80617 120.618 9.25247 121.322 9.90965C120.86 10.522 119.915 11.5836 118.837 12.4387C119.531 12.8186 120.311 13.1623 121.248 13.3457C122.743 11.9332 123.795 10.4339 124.161 9.85043C123.899 9.4359 122.458 6.74942 118.484 6.48511C114.188 6.19913 112.02 9.3088 111.648 9.7551C112.921 11.3901 114.057 12.8084 115.66 14.091C114.881 14.3279 114.037 14.4709 113.126 14.4709H98.2618V0.615289C98.1263 0.540183 97.9447 0.479521 97.7184 0.433302C97.4921 0.387083 97.1836 0.365417 96.9732 0.365417C96.5652 0.365417 96.2366 0.467966 95.9872 0.671619C95.7378 0.876715 95.6139 1.17569 95.6139 1.56856V14.4709V16.7183H113.127C114.907 16.7183 116.551 16.2705 118.008 15.5599C119.641 16.3298 121.457 16.7183 123.433 16.7183H145.499H145.497Z" fill="white"/>
<path d="M69.9162 21.0831C70.3285 21.0831 70.6773 20.9358 70.9627 20.6426C71.2481 20.3479 71.3908 20.0028 71.3908 19.6056C71.3908 19.2084 71.2481 18.8429 70.9627 18.557C70.6773 18.271 70.3285 18.128 69.9162 18.128C69.504 18.128 69.1782 18.271 68.8928 18.557C68.6074 18.8429 68.4647 19.1925 68.4647 19.6056C68.4647 20.0186 68.6074 20.3494 68.8928 20.6426C69.1782 20.9372 69.5198 21.0831 69.9162 21.0831Z" fill="white"/>
<path d="M73.8801 21.0831C74.2924 21.0831 74.6455 20.9358 74.9381 20.6426C75.2322 20.3479 75.3778 20.0028 75.3778 19.6056C75.3778 19.2084 75.2307 18.8429 74.9381 18.557C74.6441 18.271 74.2924 18.128 73.8801 18.128C73.4679 18.128 73.1421 18.271 72.8567 18.557C72.5713 18.8429 72.4286 19.1925 72.4286 19.6056C72.4286 20.0186 72.5713 20.3494 72.8567 20.6426C73.1421 20.9372 73.4837 21.0831 73.8801 21.0831Z" fill="white"/>
</g>
<defs>
<clipPath id="clip0_43_157">
<rect width="149.908" height="45" fill="white"/>
</clipPath>
</defs>
</svg>
