<svg width="64" height="64" viewBox="0 0 64 64" fill="none" xmlns="http://www.w3.org/2000/svg">
<path d="M33.2067 1.57363C35.3028 3.66977 35.2987 7.0699 33.1985 9.1701L30.164 12.2046C24.3509 9.22292 17.0266 10.1613 12.164 15.0239L25.6102 1.57769C27.7104 -0.522508 31.1105 -0.52657 33.2107 1.56957L33.2067 1.57363Z" fill="white"/>
<path d="M45.4626 53.9243L37.6752 61.7117C35.575 63.8119 32.1708 63.8119 30.0706 61.7117C27.9704 59.6115 27.9704 56.2073 30.0706 54.1071L37.858 46.3197C39.9582 44.2195 43.3624 44.2195 45.4626 46.3197C47.5628 48.4199 47.5628 51.8241 45.4626 53.9243Z" fill="white"/>
<path d="M61.7077 37.6792C61.5817 37.8052 61.4517 37.923 61.3136 38.0327C61.1755 38.1423 61.0333 38.248 60.8911 38.3495C60.7449 38.447 60.5946 38.5323 60.4362 38.6176C60.2859 38.6989 60.1193 38.7761 59.9609 38.8451C59.7984 38.9142 59.6318 38.971 59.4653 39.0239C59.2987 39.0726 59.124 39.1173 58.9534 39.1538C58.7787 39.1904 58.6041 39.2148 58.4335 39.231C58.2547 39.2473 58.076 39.2554 57.9013 39.2554C57.7266 39.2554 57.5479 39.2473 57.3691 39.231C57.1945 39.2148 57.0198 39.1863 56.8492 39.1538C56.6785 39.1173 56.5039 39.0767 56.3373 39.0239C56.1708 38.971 56.0042 38.9142 55.8417 38.8451C55.6792 38.7801 55.5208 38.7029 55.3664 38.6217C55.2121 38.5364 55.0618 38.447 54.9155 38.3536C54.7693 38.2561 54.6271 38.1505 54.493 38.0367C54.3549 37.927 54.2249 37.8052 54.099 37.6833C53.9731 37.5614 53.8553 37.4274 53.7456 37.2893C53.6318 37.1552 53.5262 37.013 53.4287 36.8668C53.3312 36.7205 53.2418 36.5662 53.1606 36.4159C53.0794 36.2615 53.0022 36.099 52.9331 35.9365C52.8681 35.774 52.8072 35.6075 52.7544 35.4409C52.7056 35.2744 52.6609 35.1037 52.6244 34.9291C52.5919 34.7585 52.5634 34.5797 52.5472 34.4091C52.531 34.2344 52.5228 34.0557 52.5228 33.881C52.5228 33.7063 52.531 33.5276 52.5472 33.357C52.5675 33.1823 52.5919 33.0035 52.6284 32.8329C52.6609 32.6623 52.7056 32.4876 52.7544 32.3211C52.8031 32.1545 52.8641 31.988 52.9331 31.8255C52.9981 31.663 53.0753 31.5046 53.1565 31.3502C53.2378 31.1958 53.3272 31.0455 53.4247 30.8993C53.5221 30.753 53.6278 30.6109 53.7374 30.4727C53.9609 30.2006 54.2127 29.9487 54.4849 29.7253C54.623 29.6156 54.7652 29.51 54.9114 29.4125C55.0577 29.315 55.208 29.2216 55.3624 29.1444C55.5167 29.0672 55.6792 28.9859 55.8377 28.9209C56.0001 28.8519 56.1667 28.791 56.3332 28.7422C56.5039 28.6894 56.6704 28.6447 56.8451 28.6163C57.0157 28.5797 57.1945 28.5513 57.3691 28.535C57.5438 28.5188 57.7226 28.5107 57.8972 28.5066C58.0719 28.5066 58.2506 28.5188 58.4253 28.535C58.6 28.5513 58.7747 28.5797 58.9453 28.6122C59.1159 28.6488 59.2906 28.6894 59.4571 28.7422C59.6278 28.795 59.7903 28.856 59.9527 28.9209C60.1152 28.99 60.2737 29.0631 60.4321 29.1484C60.5824 29.2297 60.7368 29.3231 60.883 29.4165C61.0293 29.514 61.1714 29.6197 61.3055 29.7334C61.4436 29.8431 61.5736 29.965 61.6995 30.0868C61.8255 30.2087 61.9433 30.3427 62.0529 30.4809C62.1667 30.6149 62.2682 30.7571 62.3698 30.9033C62.4673 31.0496 62.5526 31.1999 62.6379 31.3543C62.7192 31.5086 62.7963 31.6711 62.8613 31.8295C62.9304 31.992 62.9913 32.1586 63.0401 32.3251C63.0888 32.4917 63.1335 32.6664 63.1701 32.837C63.2066 33.0117 63.231 33.1863 63.2473 33.357C63.2676 33.5316 63.2757 33.7104 63.2757 33.8851C63.2757 34.0597 63.2635 34.2385 63.2513 34.4172C63.2351 34.5919 63.2066 34.7666 63.1701 34.9413C63.1335 35.1119 63.0929 35.2825 63.0401 35.4531C62.9873 35.6197 62.9304 35.7862 62.8613 35.9487C62.7923 36.1071 62.7192 36.2696 62.6339 36.424C62.5526 36.5784 62.4632 36.7287 62.3657 36.879C62.2682 37.0252 62.1626 37.1674 62.0489 37.3014C61.9392 37.4396 61.8173 37.5696 61.6955 37.6955L61.7077 37.6792Z" fill="#51E5AD"/>
<path d="M53.5831 45.7997C53.4572 45.9257 53.3272 46.0435 53.189 46.1532C53.0509 46.2628 52.9087 46.3685 52.7666 46.47C52.6203 46.5675 52.47 46.6528 52.3116 46.7381C52.1613 46.8194 51.9947 46.8965 51.8363 46.9656C51.6738 47.0347 51.5073 47.0915 51.3407 47.1443C51.1741 47.1931 50.9995 47.2378 50.8289 47.2743C50.6542 47.3109 50.4795 47.3353 50.3089 47.3515C50.1301 47.3678 49.9514 47.3759 49.7767 47.3759C49.602 47.3759 49.4233 47.3678 49.2446 47.3515C49.0699 47.3353 48.8952 47.3068 48.7246 47.2743C48.554 47.2378 48.3793 47.1972 48.2127 47.1443C48.0462 47.0915 47.8796 47.0347 47.7171 46.9656C47.5546 46.9006 47.3962 46.8234 47.2419 46.7422C47.0875 46.6569 46.9372 46.5675 46.7909 46.4741C46.6447 46.3766 46.5025 46.271 46.3685 46.1572C46.2303 46.0475 46.1004 45.9257 45.9744 45.8038C45.8485 45.6819 45.7307 45.5479 45.621 45.4098C45.5073 45.2757 45.4016 45.1335 45.3041 44.9873C45.2066 44.841 45.1173 44.6867 45.036 44.5364C44.9548 44.382 44.8776 44.2195 44.8085 44.057C44.7435 43.8945 44.6826 43.728 44.6298 43.5614C44.5811 43.3949 44.5364 43.2242 44.4998 43.0496C44.4673 42.8789 44.4389 42.7002 44.4226 42.5296C44.4064 42.3549 44.3983 42.1762 44.3983 42.0015C44.3983 41.8268 44.4064 41.6481 44.4226 41.4775C44.4429 41.3028 44.4673 41.124 44.5039 40.9534C44.5364 40.7828 44.5811 40.6081 44.6298 40.4416C44.6786 40.275 44.7395 40.1085 44.8085 39.946C44.8735 39.7835 44.9507 39.6251 45.032 39.4707C45.1132 39.3163 45.2026 39.166 45.3001 39.0198C45.3976 38.8735 45.5032 38.7314 45.6129 38.5932C45.8363 38.3211 46.0882 38.0692 46.3603 37.8458C46.4985 37.7361 46.6406 37.6305 46.7869 37.533C46.9331 37.4355 47.0834 37.3421 47.2378 37.2649C47.3922 37.1877 47.5546 37.1064 47.7131 37.0414C47.8756 36.9724 48.0421 36.9114 48.2087 36.8627C48.3793 36.8099 48.5458 36.7652 48.7205 36.7368C48.8911 36.7002 49.0699 36.6718 49.2446 36.6555C49.4192 36.6393 49.598 36.6312 49.7727 36.6271C49.9473 36.6271 50.1261 36.6393 50.3008 36.6555C50.4754 36.6718 50.6501 36.7002 50.8207 36.7327C50.9913 36.7693 51.166 36.8099 51.3326 36.8627C51.5032 36.9155 51.6657 36.9764 51.8282 37.0414C51.9907 37.1105 52.1491 37.1836 52.3075 37.2689C52.4578 37.3502 52.6122 37.4436 52.7584 37.537C52.9047 37.6345 53.0469 37.7402 53.1809 37.8539C53.319 37.9636 53.449 38.0855 53.575 38.2073C53.7009 38.3292 53.8187 38.4632 53.9284 38.6014C54.0421 38.7354 54.1437 38.8776 54.2452 39.0238C54.3427 39.1701 54.428 39.3204 54.5133 39.4748C54.5946 39.6291 54.6718 39.7916 54.7368 39.95C54.8058 40.1125 54.8668 40.2791 54.9155 40.4456C54.9643 40.6122 55.0089 40.7869 55.0455 40.9575C55.0821 41.1322 55.1064 41.3068 55.1227 41.4775C55.143 41.6521 55.1511 41.8309 55.1511 42.0056C55.1511 42.1802 55.1389 42.359 55.1268 42.5377C55.1105 42.7124 55.0821 42.8871 55.0455 43.0618C55.0089 43.2324 54.9683 43.403 54.9155 43.5736C54.8627 43.7402 54.8058 43.9067 54.7368 44.0692C54.6677 44.2276 54.5946 44.3901 54.5093 44.5445C54.428 44.6989 54.3387 44.8492 54.2412 44.9995C54.1437 45.1457 54.0381 45.2879 53.9243 45.4219C53.8146 45.5601 53.6928 45.69 53.5709 45.816L53.5831 45.7997Z" fill="#6587EE"/>
<path d="M47.4531 15.8201C49.5533 17.9203 49.5533 21.3245 47.4531 23.4247L34.5797 36.298C38.9629 31.4396 39.7144 24.4524 36.8343 18.8627C36.8343 18.8546 36.8261 18.8505 36.8221 18.8424L39.8485 15.816C41.9487 13.7158 45.3529 13.7158 47.4531 15.816V15.8201Z" fill="white"/>
<path d="M34.5797 36.298C34.401 36.4971 34.2182 36.688 34.0272 36.879L28.47 42.4362C28.3563 42.5499 28.2426 42.6555 28.1207 42.7571L34.5797 36.298Z" fill="#6587EE"/>
<path d="M34.0272 15.0198C35.1809 16.1735 36.1153 17.4612 36.8221 18.8424C36.8221 18.8505 36.8302 18.8546 36.8343 18.8627C39.7144 24.4524 38.9629 31.4396 34.5797 36.298L27.2229 43.6548L28.7869 45.2188C30.8871 47.319 30.8871 50.7232 28.7869 52.8234C26.6867 54.9236 23.2825 54.9236 21.1823 52.8234L16.0354 47.6765C13.8174 45.4585 13.8174 41.8512 16.0354 39.6332L26.7192 28.9494C28.2507 27.1051 28.1532 24.3549 26.4226 22.6244C24.5905 20.7923 21.6088 20.7923 19.7727 22.6244L14.2155 28.1816C14.1017 28.2953 13.988 28.401 13.8661 28.5025L9.16604 33.2026C7.06584 35.3028 3.66571 35.3068 1.56957 33.2107C-0.52657 31.1146 -0.522508 27.7104 1.57769 25.6102L12.1721 15.0157C17.0347 10.1532 24.359 9.21479 30.1721 12.1965C30.1762 12.2006 30.1843 12.2046 30.1924 12.2087C31.5777 12.9196 32.8776 13.858 34.0354 15.0157L34.0272 15.0198Z" fill="#6587EE"/>
</svg>
